<svg width="533" height="223" viewBox="0 0 533 223" fill="none" xmlns="http://www.w3.org/2000/svg">
<path d="M117.176 219.7C109.976 219.7 104.276 217.7 100.076 213.7C96.0757 209.7 94.0757 203.9 94.0757 196.3V179.2H26.8757C19.4757 179.2 13.5757 177.6 9.17568 174.4C4.77568 171 2.57568 165.9 2.57568 159.1C2.57568 155.1 3.47568 151 5.27568 146.8C7.07568 142.6 10.2757 137.4 14.8757 131.2L92.5757 18.0999C95.9757 13.0999 99.7757 9.29995 103.976 6.69995C108.176 4.09995 112.976 2.79995 118.376 2.79995C124.776 2.79995 129.876 4.79995 133.676 8.79996C137.676 12.6 139.676 18.4 139.676 26.1999V142.6H150.776C157.376 142.6 162.376 144.2 165.776 147.4C169.176 150.4 170.876 154.9 170.876 160.9C170.876 166.7 169.176 171.2 165.776 174.4C162.576 177.6 157.576 179.2 150.776 179.2H139.676V196.3C139.676 203.9 137.676 209.7 133.676 213.7C129.876 217.7 124.376 219.7 117.176 219.7ZM94.0757 142.6V60.1H102.776L38.8757 154V142.6H94.0757Z" fill="url(#paint0_linear_3421_150)"/>
<path d="M264.059 220.3C238.459 220.3 218.858 210.8 205.258 191.8C191.858 172.6 185.159 145.5 185.159 110.5C185.159 87.1 188.159 67.3999 194.159 51.3999C200.359 35.1999 209.259 23 220.859 14.7999C232.659 6.39995 247.059 2.19995 264.059 2.19995C289.859 2.19995 309.459 11.5 322.859 30.0999C336.259 48.5 342.958 75.3 342.958 110.5C342.958 133.9 339.859 153.8 333.659 170.2C327.659 186.4 318.859 198.8 307.259 207.4C295.659 216 281.259 220.3 264.059 220.3ZM264.059 182.5C275.659 182.5 284.258 176.8 289.858 165.4C295.458 153.8 298.259 135.5 298.259 110.5C298.259 85.5 295.458 67.5 289.858 56.5C284.258 45.4999 275.659 40 264.059 40C252.459 40 243.859 45.4999 238.259 56.5C232.659 67.5 229.859 85.5 229.859 110.5C229.859 135.5 232.659 153.8 238.259 165.4C243.859 176.8 252.459 182.5 264.059 182.5Z" fill="url(#paint1_linear_3421_150)"/>
<path d="M476.941 219.7C469.741 219.7 464.041 217.7 459.841 213.7C455.841 209.7 453.841 203.9 453.841 196.3V179.2H386.641C379.241 179.2 373.341 177.6 368.941 174.4C364.541 171 362.341 165.9 362.341 159.1C362.341 155.1 363.241 151 365.041 146.8C366.841 142.6 370.041 137.4 374.641 131.2L452.341 18.0999C455.741 13.0999 459.541 9.29995 463.741 6.69995C467.941 4.09995 472.741 2.79995 478.141 2.79995C484.541 2.79995 489.641 4.79995 493.441 8.79996C497.441 12.6 499.441 18.4 499.441 26.1999V142.6H510.541C517.141 142.6 522.141 144.2 525.541 147.4C528.941 150.4 530.641 154.9 530.641 160.9C530.641 166.7 528.941 171.2 525.541 174.4C522.341 177.6 517.341 179.2 510.541 179.2H499.441V196.3C499.441 203.9 497.441 209.7 493.441 213.7C489.641 217.7 484.141 219.7 476.941 219.7ZM453.841 142.6V60.1H462.541L398.641 154V142.6H453.841Z" fill="url(#paint2_linear_3421_150)"/>
<path fill-rule="evenodd" clip-rule="evenodd" d="M98.6787 215.131L98.6615 215.114C94.1718 210.624 92.0757 204.243 92.0757 196.3V181.2H26.8757C19.2026 181.2 12.845 179.542 7.99934 176.017L7.97581 176L7.95279 175.983C2.95286 172.119 0.575684 166.366 0.575684 159.1C0.575684 154.793 1.54581 150.426 3.43739 146.012C5.32351 141.611 8.62054 136.277 13.2477 130.038L90.9218 16.9753C90.9227 16.974 90.9237 16.9726 90.9246 16.9713C94.4472 11.792 98.4384 7.77559 102.923 4.99942C107.468 2.18558 112.64 0.799946 118.376 0.799946C125.209 0.799946 130.856 2.94869 135.091 7.3856C139.603 11.697 141.676 18.1053 141.676 26.1999V140.6H150.776C157.66 140.6 163.223 142.266 167.123 145.921C171.064 149.413 172.876 154.535 172.876 160.9C172.876 167.097 171.048 172.172 167.168 175.836C163.441 179.548 157.829 181.2 150.776 181.2H141.676V196.3C141.676 204.232 139.585 210.607 135.108 215.096C130.825 219.592 124.738 221.7 117.176 221.7C109.592 221.7 103.353 219.583 98.6964 215.148L98.6787 215.131ZM133.676 213.7C137.676 209.7 139.676 203.9 139.676 196.3V179.2H150.776C157.576 179.2 162.576 177.6 165.776 174.4C169.176 171.2 170.876 166.7 170.876 160.9C170.876 154.9 169.176 150.4 165.776 147.4C162.376 144.2 157.376 142.6 150.776 142.6H139.676V26.1999C139.676 18.4 137.676 12.6 133.676 8.79996C129.876 4.79995 124.776 2.79995 118.376 2.79995C112.976 2.79995 108.176 4.09995 103.976 6.69995C99.7757 9.29995 95.9757 13.0999 92.5757 18.0999L14.8757 131.2C10.2757 137.4 7.07568 142.6 5.27568 146.8C3.47568 151 2.57568 155.1 2.57568 159.1C2.57568 165.9 4.77568 171 9.17568 174.4C13.5757 177.6 19.4757 179.2 26.8757 179.2H94.0757V196.3C94.0757 203.9 96.0757 209.7 100.076 213.7C104.276 217.7 109.976 219.7 117.176 219.7C124.376 219.7 129.876 217.7 133.676 213.7ZM94.0757 142.6V72.8845L46.6335 142.6H94.0757ZM50.4137 140.6H92.0757V79.3784L50.4137 140.6ZM203.625 192.954L203.618 192.945C189.894 173.28 183.159 145.718 183.159 110.5C183.159 86.9427 186.177 66.9884 192.286 50.6977L192.291 50.6851C198.6 34.1988 207.714 21.6434 219.702 13.1685C231.896 4.48903 246.718 0.199951 264.059 0.199951C290.406 0.199951 310.65 9.73587 324.477 28.9248C338.228 47.8078 344.958 75.0946 344.958 110.5C344.958 134.062 341.839 154.214 335.532 170.9C329.424 187.389 320.417 200.134 308.45 209.007C296.443 217.908 281.603 222.3 264.059 222.3C237.885 222.3 217.648 212.545 203.632 192.964L203.625 192.954ZM333.659 170.2C339.859 153.8 342.958 133.9 342.958 110.5C342.958 75.2999 336.259 48.5 322.859 30.0999C309.458 11.5 289.859 2.19995 264.059 2.19995C247.059 2.19995 232.659 6.39995 220.859 14.7999C209.258 23 200.359 35.1999 194.159 51.3999C188.159 67.3999 185.159 87.0999 185.159 110.5C185.159 145.5 191.859 172.6 205.258 191.8C218.859 210.8 238.459 220.3 264.059 220.3C281.259 220.3 295.659 216 307.259 207.4C318.859 198.8 327.659 186.4 333.659 170.2ZM289.858 165.4C295.458 153.8 298.259 135.5 298.259 110.5C298.259 85.4999 295.458 67.5 289.858 56.5C284.259 45.5 275.659 40 264.059 40C252.458 40 243.859 45.5 238.259 56.5C232.659 67.5 229.859 85.4999 229.859 110.5C229.859 135.5 232.659 153.8 238.259 165.4C243.859 176.8 252.458 182.5 264.059 182.5C275.659 182.5 284.259 176.8 289.858 165.4ZM240.057 164.524C234.662 153.346 231.859 135.426 231.859 110.5C231.859 85.5555 234.668 67.9617 240.041 57.4073C242.713 52.1582 246.043 48.3315 249.986 45.8098C253.922 43.2926 258.587 42 264.059 42C269.53 42 274.195 43.2926 278.131 45.8098C282.074 48.3315 285.404 52.1582 288.076 57.4073C293.449 67.9617 296.259 85.5555 296.259 110.5C296.259 135.425 293.455 153.344 288.061 164.523C285.382 169.975 282.046 173.945 278.104 176.558C274.171 179.164 269.516 180.5 264.059 180.5C258.601 180.5 253.946 179.164 250.013 176.558C246.072 173.945 242.736 169.976 240.057 164.524ZM458.444 215.131L458.427 215.114C453.937 210.624 451.841 204.243 451.841 196.3V181.2H386.641C378.968 181.2 372.611 179.542 367.765 176.017L367.741 176L367.718 175.983C362.718 172.119 360.341 166.366 360.341 159.1C360.341 154.793 361.311 150.426 363.203 146.012C365.089 141.611 368.386 136.277 373.013 130.038L450.687 16.9753C450.689 16.9732 450.69 16.9711 450.692 16.9691C454.214 11.7908 458.205 7.77518 462.689 4.99942C467.234 2.18558 472.405 0.799946 478.141 0.799946C484.975 0.799946 490.621 2.94869 494.856 7.3856C499.369 11.697 501.441 18.1053 501.441 26.1999V140.6H510.541C517.426 140.6 522.989 142.266 526.888 145.921C530.83 149.413 532.641 154.535 532.641 160.9C532.641 167.097 530.814 172.172 526.933 175.836C523.206 179.548 517.595 181.2 510.541 181.2H501.441V196.3C501.441 204.232 499.351 210.607 494.874 215.096C490.591 219.592 484.504 221.7 476.941 221.7C469.358 221.7 463.119 219.583 458.462 215.148L458.444 215.131ZM493.441 213.7C497.441 209.7 499.441 203.9 499.441 196.3V179.2H510.541C517.341 179.2 522.341 177.6 525.541 174.4C528.941 171.2 530.641 166.7 530.641 160.9C530.641 154.9 528.941 150.4 525.541 147.4C522.141 144.2 517.141 142.6 510.541 142.6H499.441V26.1999C499.441 18.4 497.441 12.6 493.441 8.79996C489.641 4.79995 484.541 2.79995 478.141 2.79995C472.741 2.79995 467.941 4.09995 463.741 6.69995C459.541 9.29995 455.741 13.0999 452.341 18.0999L374.641 131.2C370.041 137.4 366.841 142.6 365.041 146.8C363.241 151 362.341 155.1 362.341 159.1C362.341 165.9 364.541 171 368.941 174.4C373.341 177.6 379.241 179.2 386.641 179.2H453.841V196.3C453.841 203.9 455.841 209.7 459.841 213.7C464.041 217.7 469.741 219.7 476.941 219.7C484.141 219.7 489.641 217.7 493.441 213.7ZM453.841 142.6V72.8845L406.399 142.6H453.841ZM410.179 140.6H451.841V79.3784L410.179 140.6Z" fill="white"/>
<defs>
<linearGradient id="paint0_linear_3421_150" x1="-5.99999" y1="-32" x2="241.771" y2="426.068" gradientUnits="userSpaceOnUse">
<stop stop-color="#EFEFEF" stop-opacity="0.1"/>
<stop offset="1" stop-color="#EFEFEF" stop-opacity="0.6"/>
</linearGradient>
<linearGradient id="paint1_linear_3421_150" x1="-5.99999" y1="-32" x2="241.771" y2="426.068" gradientUnits="userSpaceOnUse">
<stop stop-color="#EFEFEF" stop-opacity="0.1"/>
<stop offset="1" stop-color="#EFEFEF" stop-opacity="0.6"/>
</linearGradient>
<linearGradient id="paint2_linear_3421_150" x1="-5.99999" y1="-32" x2="241.771" y2="426.068" gradientUnits="userSpaceOnUse">
<stop stop-color="#EFEFEF" stop-opacity="0.1"/>
<stop offset="1" stop-color="#EFEFEF" stop-opacity="0.6"/>
</linearGradient>
</defs>
</svg>
