<svg width="35" height="28" viewBox="0 0 35 28" fill="none" xmlns="http://www.w3.org/2000/svg">
<path fill-rule="evenodd" clip-rule="evenodd" d="M3.5 0H31.5C33.425 0 35 1.575 35 3.5V24.5C35 26.425 33.425 28 31.5 28H3.5C1.575 28 0 26.425 0 24.5L0.0175 3.5C0.0175 1.575 1.575 0 3.5 0ZM18.4275 15.1725L30.8 7.4375C31.2375 7.1575 31.5 6.685 31.5 6.1775C31.5 5.005 30.2225 4.305 29.225 4.9175L17.5 12.25L5.775 4.9175C4.7775 4.305 3.5 5.005 3.5 6.1775C3.5 6.685 3.7625 7.1575 4.2 7.4375L16.5725 15.1725C17.1325 15.5225 17.8675 15.5225 18.4275 15.1725Z" fill="white"/>
</svg>
