<svg width="174" height="36" viewBox="0 0 174 36" fill="none" xmlns="http://www.w3.org/2000/svg">
<path d="M51.0628 10.7114C50.447 10.9009 49.9496 11.1614 49.547 11.493C49.1444 11.8245 48.8602 12.2272 48.6707 12.7008C48.5049 13.1508 48.4102 13.6719 48.4102 14.2166V21.7718C48.4102 22.3166 48.5049 22.8376 48.6707 23.2876C48.8602 23.7613 49.1444 24.1639 49.547 24.4955C49.9496 24.8271 50.447 25.0876 51.0628 25.2771C51.6549 25.4665 52.3891 25.5376 53.2417 25.5376H65.2732V22.885H53.2417C51.8207 22.885 51.6549 22.2692 51.6549 21.7955V14.2166C51.6549 13.7429 51.8207 13.1272 53.2417 13.1272H65.2732V10.4745H53.2417C52.3891 10.4509 51.6549 10.5456 51.0628 10.7114Z" fill="white"/>
<path d="M85.5231 11.493C85.1205 11.1615 84.6231 10.9009 84.0074 10.7115C83.4153 10.522 82.6574 10.4509 81.8284 10.4509H69.1575V25.5613H72.4259V19.0482H79.7205L83.1547 25.5613H86.66L83.2021 18.9535C84.3863 18.7877 85.2389 18.3851 85.7837 17.793C86.3758 17.1298 86.6836 16.2772 86.6836 15.2825V14.2167C86.6836 13.672 86.5889 13.1509 86.4231 12.7009C86.21 12.2509 85.9258 11.8246 85.5231 11.493ZM72.4259 13.1035H81.8284C83.2495 13.1035 83.4153 13.7193 83.4153 14.193V15.2825C83.4153 15.7562 83.2495 16.3719 81.8284 16.3719H72.4259V13.1035Z" fill="white"/>
<path d="M98.9283 10.4509L88.8862 25.5613H92.5573L100.089 14.0035L107.478 25.5613H111.197L101.226 10.4509H98.9283Z" fill="white"/>
<path d="M109.444 13.1035H117.094V25.5613H120.362V13.1035H127.823V10.4509H109.444V13.1035Z" fill="white"/>
<path d="M146.652 21.7955C146.652 22.2692 146.486 22.885 145.065 22.885H136.018C134.597 22.885 134.431 22.2692 134.431 21.7955V10.4509H131.162V21.7955C131.162 22.3402 131.257 22.8613 131.423 23.3113C131.612 23.785 131.897 24.1876 132.299 24.5192C132.702 24.8508 133.199 25.1113 133.815 25.3008C134.407 25.4902 135.141 25.5613 135.994 25.5613H145.657C146.51 25.5613 147.22 25.4665 147.765 25.2771C148.31 25.0876 148.76 24.8271 149.091 24.4955C149.423 24.1639 149.636 23.7376 149.754 23.2639C149.873 22.8139 149.92 22.3166 149.92 21.7718V10.4272H146.652V21.7955Z" fill="white"/>
<path d="M171.07 10.4509V21.0614L156.835 10.4509H154.135V25.5613H157.025V14.4299L172.301 25.5613H173.983V10.4509H171.07Z" fill="white"/>
<path d="M35.4078 23.0744L28.9421 29.5401C27.4737 31.0085 25.0816 31.0085 23.6132 29.5401L23.1395 29.0664L30.3631 21.8428C28.9184 20.3981 26.5974 20.3981 25.1526 21.8428L20.5343 26.4612L20.25 26.177L13.0501 18.9771C11.6054 20.4218 11.6054 22.7428 13.0501 24.1875L17.6448 28.7822L20.5343 31.6717L21.2921 32.4296L21.4816 32.619C24.1342 35.2717 28.3973 35.2717 31.05 32.619L40.5946 23.0744C39.1736 21.6534 36.8525 21.6534 35.4078 23.0744Z" fill="white"/>
<path d="M30.292 1.04831C28.871 -0.372731 26.5499 -0.34905 25.1763 1.11936L36.2367 12.1798C37.6341 13.5772 39.884 13.5772 41.2814 12.1798L41.3525 12.1087L30.292 1.04831Z" fill="white"/>
<path d="M8.12362 20.4218L20.4393 8.10612L21.4814 9.14821L25.3182 12.985C26.7629 14.4297 29.084 14.4297 30.5287 12.985L24.0867 6.54296L23.0446 5.50088L20.4393 2.89563L20.3209 2.77721C17.2183 -0.325395 12.1973 -0.325395 9.09466 2.77721L0 11.8482C1.44473 13.2929 3.76576 13.2929 5.21049 11.8482L11.6762 5.38246C13.3341 3.72457 16.0341 3.72457 17.692 5.38246L17.8104 5.50088L5.02102 18.2902C2.36841 20.9429 2.36841 25.206 5.02102 27.8586L12.0789 34.9164C13.5236 36.3612 15.8446 36.3612 17.2893 34.9164L8.09994 25.727C6.65521 24.2823 6.65521 21.8902 8.12362 20.4218Z" fill="white"/>
</svg>
