<svg width="110" height="31" viewBox="0 0 110 31" fill="none" xmlns="http://www.w3.org/2000/svg">
<path d="M53.4784 12.0927C52.6457 12.0927 51.8148 12.1556 50.9988 12.2798C50.3835 9.96133 48.3942 7.98356 45.6012 6.91306C42.8087 5.84256 39.5199 5.79765 36.6774 6.79094C34.1051 1.44137 26.2757 -1.32071 19.1901 0.621389C12.1044 2.5639 8.44595 8.47496 11.0183 13.8245C4.81141 13.9727 -0.0915262 17.851 0.00129648 22.5392C0.0946751 27.227 5.14991 30.9924 11.3601 31H53.4784C60.3934 31 66 26.7675 66 21.5463C66 16.3252 60.3934 12.0927 53.4784 12.0927Z" fill="white"/>
<path d="M66.4784 12.0927C65.6457 12.0927 64.8148 12.1556 63.9988 12.2798C63.3835 9.96133 61.3942 7.98356 58.6012 6.91306C55.8087 5.84256 52.5199 5.79765 49.6774 6.79094C47.1051 1.44137 39.2757 -1.32071 32.1901 0.621389C25.1044 2.5639 21.446 8.47496 24.0183 13.8245C17.8114 13.9727 12.9085 17.851 13.0013 22.5392C13.0947 27.227 18.1499 30.9924 24.3601 31H66.4784C73.3934 31 79 26.7675 79 21.5463C79 16.3252 73.3934 12.0927 66.4784 12.0927Z" fill="white" fill-opacity="0.2"/>
<path d="M77.4784 12.0927C76.6457 12.0927 75.8148 12.1556 74.9988 12.2798C74.3835 9.96133 72.3942 7.98356 69.6012 6.91306C66.8087 5.84256 63.5199 5.79765 60.6774 6.79094C58.1051 1.44137 50.2757 -1.32071 43.1901 0.621389C36.1044 2.5639 32.446 8.47496 35.0183 13.8245C28.8114 13.9727 23.9085 17.851 24.0013 22.5392C24.0947 27.227 29.1499 30.9924 35.3601 31H77.4784C84.3934 31 90 26.7675 90 21.5463C90 16.3252 84.3934 12.0927 77.4784 12.0927Z" fill="white" fill-opacity="0.1"/>
<path d="M8.76 27.192C8.41867 27.192 8.152 27.1227 7.96 26.984C7.77867 26.8453 7.64533 26.6853 7.56 26.504C7.47467 26.3227 7.40533 26.1733 7.352 26.056L5.224 20.824C5.13867 20.5253 5.096 20.2747 5.096 20.072C5.10667 19.8587 5.18133 19.6773 5.32 19.528C5.46933 19.3787 5.69867 19.2453 6.008 19.128C6.49867 18.9147 6.89867 18.856 7.208 18.952C7.528 19.0373 7.75733 19.2933 7.896 19.72L8.76 22.104L9.512 20.04C9.55467 19.9333 9.61867 19.8 9.704 19.64C9.78933 19.48 9.92267 19.336 10.104 19.208C10.296 19.0693 10.552 19 10.872 19C11.224 19 11.496 19.0693 11.688 19.208C11.88 19.336 12.024 19.4853 12.12 19.656C12.216 19.816 12.28 19.9493 12.312 20.056L13.048 22.104L13.816 19.976C13.9973 19.5067 14.232 19.1867 14.52 19.016C14.8187 18.8453 15.208 18.8667 15.688 19.08C16.136 19.2827 16.4453 19.528 16.616 19.816C16.7867 20.0933 16.776 20.44 16.584 20.856L14.44 26.056C14.3867 26.184 14.3173 26.3387 14.232 26.52C14.1467 26.7013 14.0133 26.8613 13.832 27C13.6507 27.128 13.3947 27.192 13.064 27.192C12.7227 27.192 12.4613 27.1333 12.28 27.016C12.0987 26.8987 11.96 26.7547 11.864 26.584C11.7787 26.4027 11.704 26.2267 11.64 26.056L10.904 24.088L10.168 26.056C10.0827 26.28 10.0027 26.4773 9.928 26.648C9.85333 26.8187 9.73067 26.952 9.56 27.048C9.38933 27.144 9.12267 27.192 8.76 27.192ZM21.0924 27.32C20.2924 27.32 19.615 27.192 19.0604 26.936C18.5057 26.6693 18.0577 26.328 17.7164 25.912C17.375 25.4853 17.1244 25.0267 16.9644 24.536C16.8044 24.0453 16.7244 23.5707 16.7244 23.112C16.7244 22.2693 16.911 21.528 17.2844 20.888C17.6577 20.248 18.175 19.7467 18.8364 19.384C19.4977 19.0213 20.255 18.84 21.1084 18.84C21.7697 18.84 22.335 18.9467 22.8044 19.16C23.2737 19.3733 23.6524 19.6453 23.9404 19.976C24.239 20.3067 24.4577 20.6587 24.5964 21.032C24.735 21.4053 24.8044 21.752 24.8044 22.072C24.8044 22.68 24.655 23.144 24.3564 23.464C24.0577 23.784 23.6737 23.944 23.2044 23.944H19.7964C19.839 24.1147 19.9244 24.264 20.0524 24.392C20.191 24.5093 20.3617 24.6053 20.5644 24.68C20.767 24.744 20.9857 24.776 21.2204 24.776C21.455 24.776 21.663 24.7653 21.8444 24.744C22.0257 24.712 22.1804 24.6747 22.3084 24.632C22.447 24.5893 22.5697 24.5467 22.6764 24.504C22.7937 24.4613 22.895 24.4293 22.9804 24.408C23.0764 24.376 23.167 24.36 23.2524 24.36C23.4444 24.36 23.6204 24.424 23.7804 24.552C23.9404 24.68 24.0844 24.872 24.2124 25.128C24.287 25.2667 24.3404 25.4 24.3724 25.528C24.4044 25.6453 24.4204 25.7573 24.4204 25.864C24.4204 26.184 24.287 26.4507 24.0204 26.664C23.7644 26.8773 23.391 27.0373 22.9004 27.144C22.4097 27.2613 21.807 27.32 21.0924 27.32ZM19.7964 22.44H21.5884C21.7377 22.44 21.8444 22.408 21.9084 22.344C21.983 22.28 22.0204 22.184 22.0204 22.056C22.0204 21.9173 21.9777 21.8 21.8924 21.704C21.8177 21.608 21.711 21.5387 21.5724 21.496C21.4337 21.4427 21.2684 21.416 21.0764 21.416C20.8204 21.416 20.5964 21.4693 20.4044 21.576C20.2124 21.672 20.063 21.8 19.9564 21.96C19.8604 22.1093 19.807 22.2693 19.7964 22.44ZM32.0229 27.112C31.5429 27.112 31.1855 27.032 30.9509 26.872C30.7269 26.712 30.6202 26.5307 30.6309 26.328H30.8549C30.8015 26.4027 30.6949 26.504 30.5349 26.632C30.3855 26.7493 30.1829 26.8613 29.9269 26.968C29.6709 27.064 29.3562 27.112 28.9829 27.112C28.5029 27.112 28.0389 27.0053 27.5909 26.792C27.1535 26.568 26.7589 26.264 26.4069 25.88C26.0655 25.496 25.7935 25.064 25.5909 24.584C25.3882 24.0933 25.2869 23.5813 25.2869 23.048C25.2869 22.5253 25.3882 22.024 25.5909 21.544C25.7935 21.064 26.0709 20.6373 26.4229 20.264C26.7749 19.88 27.1695 19.5813 27.6069 19.368C28.0442 19.144 28.5029 19.032 28.9829 19.032C29.3455 19.032 29.6495 19.0853 29.8949 19.192C30.1509 19.2987 30.3535 19.416 30.5029 19.544C30.6629 19.672 30.7695 19.7787 30.8229 19.864H30.6469C30.6362 19.5973 30.7429 19.3893 30.9669 19.24C31.2015 19.0907 31.5589 19.016 32.0389 19.016C32.5189 19.016 32.8549 19.0907 33.0469 19.24C33.2495 19.3787 33.3722 19.56 33.4149 19.784C33.4575 20.008 33.4789 20.2373 33.4789 20.472V25.672C33.4789 25.9067 33.4575 26.136 33.4149 26.36C33.3722 26.584 33.2495 26.7653 33.0469 26.904C32.8549 27.0427 32.5135 27.112 32.0229 27.112ZM29.3829 24.216C29.5855 24.216 29.7669 24.1627 29.9269 24.056C30.0975 23.9493 30.2309 23.8107 30.3269 23.64C30.4335 23.4587 30.4869 23.2667 30.4869 23.064C30.4869 22.8507 30.4335 22.6587 30.3269 22.488C30.2309 22.3173 30.0975 22.1787 29.9269 22.072C29.7562 21.9653 29.5642 21.912 29.3509 21.912C29.1375 21.912 28.9402 21.9653 28.7589 22.072C28.5882 22.1787 28.4495 22.3227 28.3429 22.504C28.2362 22.6747 28.1829 22.8667 28.1829 23.08C28.1829 23.2827 28.2362 23.4693 28.3429 23.64C28.4602 23.8107 28.6095 23.9493 28.7909 24.056C28.9722 24.1627 29.1695 24.216 29.3829 24.216ZM38.7851 27.144C38.2198 27.144 37.7291 27.08 37.3131 26.952C36.8971 26.824 36.5505 26.6267 36.2731 26.36C36.0065 26.0933 35.8038 25.7573 35.6651 25.352C35.5371 24.9467 35.4731 24.472 35.4731 23.928V17.72C35.4731 17.4747 35.4945 17.2507 35.5371 17.048C35.5798 16.8347 35.7025 16.664 35.9051 16.536C36.1078 16.3973 36.4491 16.328 36.9291 16.328C37.3985 16.328 37.7345 16.4027 37.9371 16.552C38.1398 16.6907 38.2625 16.872 38.3051 17.096C38.3478 17.32 38.3691 17.5493 38.3691 17.784V23.784C38.3691 23.9013 38.3745 24.0027 38.3851 24.088C38.4065 24.1627 38.4331 24.2213 38.4651 24.264C38.4971 24.3067 38.5398 24.3387 38.5931 24.36C38.6465 24.3813 38.7158 24.392 38.8011 24.392C39.0785 24.392 39.3238 24.4133 39.5371 24.456C39.7611 24.4987 39.9318 24.6107 40.0491 24.792C40.1771 24.9733 40.2411 25.2773 40.2411 25.704C40.2411 26.184 40.1665 26.5253 40.0171 26.728C39.8678 26.9307 39.6811 27.048 39.4571 27.08C39.2331 27.1227 39.0091 27.144 38.7851 27.144ZM35.1371 19.112H37.0091L39.2171 19.032C39.4518 19.032 39.6758 19.0533 39.8891 19.096C40.1131 19.1387 40.2945 19.2613 40.4331 19.464C40.5825 19.6667 40.6571 20.0133 40.6571 20.504C40.6571 20.952 40.5825 21.2773 40.4331 21.48C40.2945 21.6827 40.1131 21.8107 39.8891 21.864C39.6758 21.9173 39.4465 21.944 39.2011 21.944L37.1691 21.896H35.0731C34.7105 21.8747 34.4598 21.7573 34.3211 21.544C34.1825 21.3307 34.1131 20.9787 34.1131 20.488C34.1131 20.0293 34.1985 19.688 34.3691 19.464C34.5398 19.2293 34.7958 19.112 35.1371 19.112ZM42.7005 27.144C42.2205 27.144 41.8792 27.0747 41.6765 26.936C41.4738 26.7867 41.3512 26.6 41.3085 26.376C41.2765 26.152 41.2605 25.9227 41.2605 25.688V16.792C41.2605 16.5467 41.2818 16.3173 41.3245 16.104C41.3672 15.88 41.4898 15.6987 41.6925 15.56C41.8952 15.4213 42.2365 15.352 42.7165 15.352C43.1965 15.352 43.5325 15.4267 43.7245 15.576C43.9272 15.7147 44.0498 15.896 44.0925 16.12C44.1352 16.3333 44.1565 16.5627 44.1565 16.808V19.72C44.3165 19.5707 44.5298 19.4213 44.7965 19.272C45.0738 19.112 45.3938 19.032 45.7565 19.032C46.4392 19.032 47.0525 19.2133 47.5965 19.576C48.1405 19.928 48.5725 20.408 48.8925 21.016C49.2125 21.624 49.3725 22.312 49.3725 23.08V25.704C49.3725 25.9387 49.3512 26.168 49.3085 26.392C49.2658 26.6053 49.1432 26.7867 48.9405 26.936C48.7485 27.0747 48.4072 27.144 47.9165 27.144C47.4472 27.144 47.1058 27.0747 46.8925 26.936C46.6898 26.7973 46.5672 26.616 46.5245 26.392C46.4818 26.168 46.4605 25.928 46.4605 25.672V23.064C46.4605 22.8293 46.4178 22.632 46.3325 22.472C46.2472 22.3013 46.1245 22.168 45.9645 22.072C45.8045 21.976 45.6125 21.928 45.3885 21.928C45.1005 21.928 44.8338 22.0187 44.5885 22.2C44.3432 22.3813 44.1992 22.5893 44.1565 22.824V25.704C44.1565 25.9387 44.1352 26.168 44.0925 26.392C44.0498 26.616 43.9272 26.7973 43.7245 26.936C43.5325 27.0747 43.1912 27.144 42.7005 27.144ZM54.4361 27.32C53.6361 27.32 52.9588 27.192 52.4041 26.936C51.8495 26.6693 51.4015 26.328 51.0601 25.912C50.7188 25.4853 50.4681 25.0267 50.3081 24.536C50.1481 24.0453 50.0681 23.5707 50.0681 23.112C50.0681 22.2693 50.2548 21.528 50.6281 20.888C51.0015 20.248 51.5188 19.7467 52.1801 19.384C52.8415 19.0213 53.5988 18.84 54.4521 18.84C55.1135 18.84 55.6788 18.9467 56.1481 19.16C56.6175 19.3733 56.9961 19.6453 57.2841 19.976C57.5828 20.3067 57.8015 20.6587 57.9401 21.032C58.0788 21.4053 58.1481 21.752 58.1481 22.072C58.1481 22.68 57.9988 23.144 57.7001 23.464C57.4015 23.784 57.0175 23.944 56.5481 23.944H53.1401C53.1828 24.1147 53.2681 24.264 53.3961 24.392C53.5348 24.5093 53.7055 24.6053 53.9081 24.68C54.1108 24.744 54.3295 24.776 54.5641 24.776C54.7988 24.776 55.0068 24.7653 55.1881 24.744C55.3695 24.712 55.5241 24.6747 55.6521 24.632C55.7908 24.5893 55.9135 24.5467 56.0201 24.504C56.1375 24.4613 56.2388 24.4293 56.3241 24.408C56.4201 24.376 56.5108 24.36 56.5961 24.36C56.7881 24.36 56.9641 24.424 57.1241 24.552C57.2841 24.68 57.4281 24.872 57.5561 25.128C57.6308 25.2667 57.6841 25.4 57.7161 25.528C57.7481 25.6453 57.7641 25.7573 57.7641 25.864C57.7641 26.184 57.6308 26.4507 57.3641 26.664C57.1081 26.8773 56.7348 27.0373 56.2441 27.144C55.7535 27.2613 55.1508 27.32 54.4361 27.32ZM53.1401 22.44H54.9321C55.0815 22.44 55.1881 22.408 55.2521 22.344C55.3268 22.28 55.3641 22.184 55.3641 22.056C55.3641 21.9173 55.3215 21.8 55.2361 21.704C55.1615 21.608 55.0548 21.5387 54.9161 21.496C54.7775 21.4427 54.6121 21.416 54.4201 21.416C54.1641 21.416 53.9401 21.4693 53.7481 21.576C53.5561 21.672 53.4068 21.8 53.3001 21.96C53.2041 22.1093 53.1508 22.2693 53.1401 22.44ZM60.3106 27.144C59.8306 27.144 59.4893 27.0747 59.2866 26.936C59.084 26.7867 58.9613 26.6 58.9186 26.376C58.8866 26.1413 58.8706 25.9067 58.8706 25.672V20.456C58.8706 20.2107 58.892 19.9813 58.9346 19.768C58.9773 19.544 59.1 19.3627 59.3026 19.224C59.5053 19.0853 59.8466 19.016 60.3266 19.016C60.796 19.016 61.1266 19.08 61.3186 19.208C61.5213 19.336 61.644 19.48 61.6866 19.64C61.7293 19.7893 61.7506 19.9067 61.7506 19.992L61.4946 19.896C61.4946 19.896 61.5373 19.848 61.6226 19.752C61.708 19.656 61.8306 19.544 61.9906 19.416C62.1613 19.288 62.3586 19.176 62.5826 19.08C62.8173 18.984 63.0786 18.936 63.3666 18.936C63.4626 18.936 63.58 18.9467 63.7186 18.968C63.868 18.9787 64.0226 19.0053 64.1826 19.048C64.3533 19.0907 64.508 19.1547 64.6466 19.24C64.796 19.3253 64.9133 19.4373 64.9986 19.576C65.0946 19.7147 65.1426 19.8853 65.1426 20.088C65.1426 20.6213 65.0253 21.0747 64.7906 21.448C64.5666 21.8213 64.268 22.008 63.8946 22.008C63.692 22.008 63.548 21.9973 63.4626 21.976C63.3773 21.944 63.3133 21.9173 63.2706 21.896C63.2386 21.864 63.196 21.8373 63.1426 21.816C63.1 21.784 63.0146 21.768 62.8866 21.768C62.7266 21.768 62.5773 21.7893 62.4386 21.832C62.3106 21.864 62.1933 21.9173 62.0866 21.992C61.9906 22.0667 61.916 22.1573 61.8626 22.264C61.8093 22.36 61.7826 22.4667 61.7826 22.584V25.704C61.7826 25.9387 61.7613 26.168 61.7186 26.392C61.676 26.616 61.5533 26.7973 61.3506 26.936C61.148 27.0747 60.8013 27.144 60.3106 27.144Z" fill="#E763E8"/>
<path d="M70.1929 27.112C69.7129 27.112 69.2489 27.0053 68.8009 26.792C68.3635 26.568 67.9689 26.2693 67.6169 25.896C67.2755 25.512 67.0035 25.0747 66.8009 24.584C66.5982 24.0933 66.4969 23.5813 66.4969 23.048C66.4969 22.536 66.5982 22.04 66.8009 21.56C67.0035 21.08 67.2809 20.6533 67.6329 20.28C67.9849 19.896 68.3795 19.592 68.8169 19.368C69.2649 19.144 69.7235 19.032 70.1929 19.032C70.7049 19.032 71.1475 19.144 71.5209 19.368C71.8942 19.5813 72.2035 19.8747 72.4489 20.248C72.6942 20.6213 72.8755 21.048 72.9929 21.528C73.1209 22.008 73.1902 22.504 73.2009 23.016C73.2115 23.5387 73.1582 24.0453 73.0409 24.536C72.9235 25.016 72.7422 25.4533 72.4969 25.848C72.2515 26.232 71.9369 26.5413 71.5529 26.776C71.1795 27 70.7262 27.112 70.1929 27.112ZM70.5769 24.232C70.7795 24.232 70.9662 24.1787 71.1369 24.072C71.3075 23.9653 71.4462 23.8267 71.5529 23.656C71.6595 23.4747 71.7129 23.2827 71.7129 23.08C71.7129 22.8667 71.6595 22.6747 71.5529 22.504C71.4569 22.3333 71.3235 22.1947 71.1529 22.088C70.9822 21.9813 70.7849 21.928 70.5609 21.928C70.3475 21.928 70.1502 21.9813 69.9689 22.088C69.7982 22.184 69.6595 22.3227 69.5529 22.504C69.4569 22.6747 69.4089 22.8667 69.4089 23.08C69.4089 23.2827 69.4622 23.4747 69.5689 23.656C69.6755 23.8267 69.8195 23.9653 70.0009 24.072C70.1822 24.1787 70.3742 24.232 70.5769 24.232ZM73.2009 27.128C72.7742 27.128 72.4542 27.064 72.2409 26.936C72.0275 26.808 71.8835 26.6053 71.8089 26.328V16.808C71.8089 16.5733 71.8195 16.344 71.8409 16.12C71.8729 15.896 71.9849 15.7147 72.1769 15.576C72.3689 15.4267 72.7049 15.352 73.1849 15.352C73.6755 15.352 74.0169 15.4213 74.2089 15.56C74.4115 15.6987 74.5342 15.88 74.5769 16.104C74.6195 16.3173 74.6409 16.5467 74.6409 16.792V25.672C74.6409 25.9067 74.6195 26.136 74.5769 26.36C74.5342 26.584 74.4115 26.7707 74.2089 26.92C74.0169 27.0587 73.6809 27.128 73.2009 27.128ZM77.0362 27.144C76.5562 27.144 76.2149 27.0747 76.0122 26.936C75.8096 26.7867 75.6869 26.6 75.6442 26.376C75.6122 26.1413 75.5962 25.9067 75.5962 25.672V20.456C75.5962 20.2107 75.6176 19.9813 75.6602 19.768C75.7029 19.544 75.8256 19.3627 76.0282 19.224C76.2309 19.0853 76.5722 19.016 77.0522 19.016C77.5216 19.016 77.8522 19.08 78.0442 19.208C78.2469 19.336 78.3696 19.48 78.4122 19.64C78.4549 19.7893 78.4762 19.9067 78.4762 19.992L78.2202 19.896C78.2202 19.896 78.2629 19.848 78.3482 19.752C78.4336 19.656 78.5562 19.544 78.7162 19.416C78.8869 19.288 79.0842 19.176 79.3082 19.08C79.5429 18.984 79.8042 18.936 80.0922 18.936C80.1882 18.936 80.3056 18.9467 80.4442 18.968C80.5936 18.9787 80.7482 19.0053 80.9082 19.048C81.0789 19.0907 81.2336 19.1547 81.3722 19.24C81.5216 19.3253 81.6389 19.4373 81.7242 19.576C81.8202 19.7147 81.8682 19.8853 81.8682 20.088C81.8682 20.6213 81.7509 21.0747 81.5162 21.448C81.2922 21.8213 80.9936 22.008 80.6202 22.008C80.4176 22.008 80.2736 21.9973 80.1882 21.976C80.1029 21.944 80.0389 21.9173 79.9962 21.896C79.9642 21.864 79.9216 21.8373 79.8682 21.816C79.8256 21.784 79.7402 21.768 79.6122 21.768C79.4522 21.768 79.3029 21.7893 79.1642 21.832C79.0362 21.864 78.9189 21.9173 78.8122 21.992C78.7162 22.0667 78.6416 22.1573 78.5882 22.264C78.5349 22.36 78.5082 22.4667 78.5082 22.584V25.704C78.5082 25.9387 78.4869 26.168 78.4442 26.392C78.4016 26.616 78.2789 26.7973 78.0762 26.936C77.8736 27.0747 77.5269 27.144 77.0362 27.144ZM86.0181 27.288C85.5275 27.288 85.0315 27.192 84.5301 27C84.0288 26.7973 83.5648 26.5147 83.1381 26.152C82.7221 25.7787 82.3861 25.336 82.1301 24.824C81.8848 24.3013 81.7621 23.72 81.7621 23.08C81.7621 22.4933 81.8741 21.944 82.0981 21.432C82.3221 20.92 82.6261 20.472 83.0101 20.088C83.4048 19.6933 83.8528 19.384 84.3541 19.16C84.8661 18.936 85.4101 18.824 85.9861 18.824C86.7755 18.824 87.4901 19.016 88.1301 19.4C88.7701 19.7733 89.2821 20.28 89.6661 20.92C90.0501 21.56 90.2421 22.2747 90.2421 23.064C90.2421 23.736 90.1141 24.3333 89.8581 24.856C89.6021 25.3787 89.2661 25.8213 88.8501 26.184C88.4341 26.5467 87.9755 26.8187 87.4741 27C86.9835 27.192 86.4981 27.288 86.0181 27.288ZM85.9861 24.36C86.1461 24.36 86.3275 24.3227 86.5301 24.248C86.7435 24.1627 86.9248 24.024 87.0741 23.832C87.2341 23.64 87.3141 23.3787 87.3141 23.048C87.3141 22.7813 87.2555 22.552 87.1381 22.36C87.0315 22.168 86.8768 22.0187 86.6741 21.912C86.4715 21.8053 86.2368 21.752 85.9701 21.752C85.7355 21.752 85.5221 21.8107 85.3301 21.928C85.1381 22.0347 84.9835 22.1893 84.8661 22.392C84.7488 22.584 84.6901 22.808 84.6901 23.064C84.6901 23.384 84.7648 23.64 84.9141 23.832C85.0635 24.024 85.2395 24.1627 85.4421 24.248C85.6448 24.3227 85.8261 24.36 85.9861 24.36ZM95.388 27.112C94.8653 27.112 94.412 27 94.028 26.776C93.644 26.5413 93.3293 26.232 93.084 25.848C92.8387 25.4533 92.6573 25.016 92.54 24.536C92.4227 24.0453 92.3693 23.5387 92.38 23.016C92.3907 22.504 92.4547 22.008 92.572 21.528C92.7 21.048 92.8867 20.6213 93.132 20.248C93.3773 19.8747 93.6867 19.5813 94.06 19.368C94.4333 19.144 94.876 19.032 95.388 19.032C95.8573 19.032 96.3107 19.144 96.748 19.368C97.196 19.592 97.596 19.896 97.948 20.28C98.3 20.6533 98.5773 21.08 98.78 21.56C98.9827 22.04 99.084 22.536 99.084 23.048C99.084 23.5813 98.9827 24.0933 98.78 24.584C98.5773 25.0747 98.3 25.512 97.948 25.896C97.6067 26.2693 97.212 26.568 96.764 26.792C96.3267 27.0053 95.868 27.112 95.388 27.112ZM95.004 24.232C95.2173 24.232 95.4093 24.1787 95.58 24.072C95.7613 23.9653 95.9053 23.8267 96.012 23.656C96.1187 23.4747 96.172 23.2827 96.172 23.08C96.172 22.8667 96.1187 22.6747 96.012 22.504C95.916 22.3227 95.7773 22.184 95.596 22.088C95.4253 21.9813 95.2333 21.928 95.02 21.928C94.8067 21.928 94.6093 21.9813 94.428 22.088C94.2573 22.1947 94.1187 22.3333 94.012 22.504C93.916 22.6747 93.868 22.8667 93.868 23.08C93.868 23.2827 93.9213 23.4747 94.028 23.656C94.1347 23.8267 94.2733 23.9653 94.444 24.072C94.6147 24.1787 94.8013 24.232 95.004 24.232ZM92.38 27.128C91.9 27.128 91.5587 27.0587 91.356 26.92C91.1533 26.7707 91.0307 26.584 90.988 26.36C90.956 26.136 90.94 25.9067 90.94 25.672V16.792C90.94 16.5467 90.9613 16.3173 91.004 16.104C91.0467 15.88 91.1693 15.6987 91.372 15.56C91.5747 15.4213 91.916 15.352 92.396 15.352C92.876 15.352 93.212 15.4267 93.404 15.576C93.596 15.7147 93.708 15.896 93.74 16.12C93.772 16.344 93.7827 16.5733 93.772 16.808V26.328C93.6973 26.6053 93.5533 26.808 93.34 26.936C93.1373 27.064 92.8173 27.128 92.38 27.128ZM103.927 27.32C103.127 27.32 102.45 27.192 101.895 26.936C101.341 26.6693 100.893 26.328 100.551 25.912C100.21 25.4853 99.9594 25.0267 99.7994 24.536C99.6394 24.0453 99.5594 23.5707 99.5594 23.112C99.5594 22.2693 99.746 21.528 100.119 20.888C100.493 20.248 101.01 19.7467 101.671 19.384C102.333 19.0213 103.09 18.84 103.943 18.84C104.605 18.84 105.17 18.9467 105.639 19.16C106.109 19.3733 106.487 19.6453 106.775 19.976C107.074 20.3067 107.293 20.6587 107.431 21.032C107.57 21.4053 107.639 21.752 107.639 22.072C107.639 22.68 107.49 23.144 107.191 23.464C106.893 23.784 106.509 23.944 106.039 23.944H102.631C102.674 24.1147 102.759 24.264 102.887 24.392C103.026 24.5093 103.197 24.6053 103.399 24.68C103.602 24.744 103.821 24.776 104.055 24.776C104.29 24.776 104.498 24.7653 104.679 24.744C104.861 24.712 105.015 24.6747 105.143 24.632C105.282 24.5893 105.405 24.5467 105.511 24.504C105.629 24.4613 105.73 24.4293 105.815 24.408C105.911 24.376 106.002 24.36 106.087 24.36C106.279 24.36 106.455 24.424 106.615 24.552C106.775 24.68 106.919 24.872 107.047 25.128C107.122 25.2667 107.175 25.4 107.207 25.528C107.239 25.6453 107.255 25.7573 107.255 25.864C107.255 26.184 107.122 26.4507 106.855 26.664C106.599 26.8773 106.226 27.0373 105.735 27.144C105.245 27.2613 104.642 27.32 103.927 27.32ZM102.631 22.44H104.423C104.573 22.44 104.679 22.408 104.743 22.344C104.818 22.28 104.855 22.184 104.855 22.056C104.855 21.9173 104.813 21.8 104.727 21.704C104.653 21.608 104.546 21.5387 104.407 21.496C104.269 21.4427 104.103 21.416 103.911 21.416C103.655 21.416 103.431 21.4693 103.239 21.576C103.047 21.672 102.898 21.8 102.791 21.96C102.695 22.1093 102.642 22.2693 102.631 22.44Z" fill="white"/>
</svg>
