<?xml version="1.0" standalone="no"?>
<!DOCTYPE svg PUBLIC "-//W3C//DTD SVG 20010904//EN"
 "http://www.w3.org/TR/2001/REC-SVG-20010904/DTD/svg10.dtd">
<svg version="1.0" xmlns="http://www.w3.org/2000/svg"
 width="600.000000pt" height="600.000000pt" viewBox="0 0 600.000000 600.000000"
 preserveAspectRatio="xMidYMid meet">
<metadata>
Created by potrace 1.14, written by Peter Selinger 2001-2017
</metadata>
<g transform="translate(0.000000,600.000000) scale(0.100000,-0.100000)"
fill="#000000" stroke="none">
<path d="M0 3000 l0 -3000 3000 0 3000 0 0 3000 0 3000 -3000 0 -3000 0 0
-3000z m3018 1620 c354 -72 675 -287 868 -581 38 -59 74 -113 79 -122 8 -12
20 -14 65 -7 161 25 385 3 555 -54 538 -180 885 -659 885 -1220 0 -217 -43
-397 -142 -588 -155 -302 -414 -524 -739 -632 -206 -69 -157 -67 -1809 -63
l-1485 3 -75 22 c-305 88 -530 268 -659 528 -196 395 -121 857 188 1165 156
154 336 246 553 282 l73 13 7 64 c61 553 473 1031 1011 1172 199 52 428 59
625 18z"/>
<path d="M2278 3281 c-81 -26 -145 -67 -164 -103 -34 -65 -20 -111 175 -578
100 -239 192 -451 206 -471 45 -68 162 -99 264 -69 57 16 77 46 141 209 34 86
70 176 80 200 l18 44 20 -54 c78 -208 127 -323 148 -348 58 -69 215 -83 289
-27 41 31 59 66 168 326 36 85 111 262 166 393 55 131 103 253 106 271 14 71
-40 139 -150 192 -106 51 -174 45 -236 -23 -36 -38 -48 -63 -114 -243 -31 -85
-60 -159 -64 -163 -4 -4 -32 59 -61 140 -65 182 -92 235 -139 267 -66 46 -174
55 -241 21 -64 -33 -92 -83 -175 -313 l-48 -133 -77 205 c-42 113 -85 215 -96
227 -45 50 -119 61 -216 30z"/>
</g>
</svg>
