<svg width="81" height="81" viewBox="0 0 81 81" fill="none" xmlns="http://www.w3.org/2000/svg">
<g clip-path="url(#clip0_3430_1481)">
<path d="M40.2499 15.5098C35.3428 15.4999 30.5431 16.946 26.4582 19.665C22.3733 22.3841 19.1868 26.2538 17.3021 30.7846C15.4174 35.3153 14.9191 40.3033 15.8704 45.1173C16.8216 49.9314 19.1796 54.355 22.646 57.8283C26.1123 61.3017 30.5312 63.6686 35.3433 64.6296C40.1553 65.5905 45.1444 65.1023 49.6789 63.2268C54.2134 61.3512 58.0896 58.1726 60.8169 54.0931C63.5441 50.0137 64.9999 45.2169 64.9999 40.3098C64.992 33.7435 62.3835 27.4477 57.7451 22.8C53.1067 18.1522 46.8162 15.531 40.2499 15.5098V15.5098Z" fill="#F5B952"/>
<path d="M40.2499 15.5098C35.3428 15.4999 30.5431 16.946 26.4582 19.665C22.3733 22.3841 19.1868 26.2538 17.3021 30.7846C15.4174 35.3153 14.9191 40.3033 15.8704 45.1173C16.8216 49.9314 19.1796 54.355 22.646 57.8283C26.1123 61.3017 30.5312 63.6686 35.3433 64.6296C40.1553 65.5905 45.1444 65.1023 49.6789 63.2268C54.2134 61.3512 58.0896 58.1726 60.8169 54.0931C63.5441 50.0137 64.9999 45.2169 64.9999 40.3098C64.992 33.7435 62.3835 27.4477 57.7451 22.8C53.1067 18.1522 46.8162 15.531 40.2499 15.5098V15.5098Z" fill="#F5B952" stroke="#F5B952" stroke-width="4" stroke-miterlimit="10"/>
<path d="M40.21 15.51V2" stroke="#F5B952" stroke-width="4" stroke-miterlimit="10" stroke-linecap="square"/>
<path d="M40.4702 65.1699V78.6799" stroke="#F5B952" stroke-width="4" stroke-miterlimit="10" stroke-linecap="square"/>
<path d="M65.1699 40.21H78.6799" stroke="#F5B952" stroke-width="4" stroke-miterlimit="10" stroke-linecap="square"/>
<path d="M15.51 40.4702H2" stroke="#F5B952" stroke-width="4" stroke-miterlimit="10" stroke-linecap="square"/>
<path d="M22.7001 22.8798L13.1401 13.3198" stroke="#F5B952" stroke-width="4" stroke-miterlimit="10" stroke-linecap="square"/>
<path d="M57.9902 57.8101L67.5402 67.3601" stroke="#F5B952" stroke-width="4" stroke-miterlimit="10" stroke-linecap="square"/>
<path d="M57.8101 22.7001L67.3601 13.1401" stroke="#F5B952" stroke-width="4" stroke-miterlimit="10" stroke-linecap="square"/>
<path d="M22.8798 57.9902L13.3198 67.5402" stroke="#F5B952" stroke-width="4" stroke-miterlimit="10" stroke-linecap="square"/>
</g>
<defs>
<clipPath id="clip0_3430_1481">
<rect width="80.68" height="80.68" fill="white"/>
</clipPath>
</defs>
</svg>
