<svg width="80" height="82" viewBox="0 0 80 82" fill="none" xmlns="http://www.w3.org/2000/svg">
<g clip-path="url(#clip0_3430_1515)">
<path d="M18.8201 63.4702C23.1058 63.4702 26.5801 59.9959 26.5801 55.7102C26.5801 51.4245 23.1058 47.9502 18.8201 47.9502C14.5343 47.9502 11.0601 51.4245 11.0601 55.7102C11.0601 59.9959 14.5343 63.4702 18.8201 63.4702Z" fill="#5063F0"/>
<path d="M39.0598 63.4702C43.3455 63.4702 46.8198 59.9959 46.8198 55.7102C46.8198 51.4245 43.3455 47.9502 39.0598 47.9502C34.7741 47.9502 31.2998 51.4245 31.2998 55.7102C31.2998 59.9959 34.7741 63.4702 39.0598 63.4702Z" fill="#5063F0"/>
<path d="M59.8498 63.4702C64.1356 63.4702 67.6098 59.9959 67.6098 55.7102C67.6098 51.4245 64.1356 47.9502 59.8498 47.9502C55.5641 47.9502 52.0898 51.4245 52.0898 55.7102C52.0898 59.9959 55.5641 63.4702 59.8498 63.4702Z" fill="#5063F0"/>
<path d="M29.18 79.99C32.2949 79.99 34.82 77.4648 34.82 74.35C34.82 71.2351 32.2949 68.71 29.18 68.71C26.0652 68.71 23.54 71.2351 23.54 74.35C23.54 77.4648 26.0652 79.99 29.18 79.99Z" fill="#5063F0"/>
<path d="M47.2899 79.99C50.4048 79.99 52.9299 77.4648 52.9299 74.35C52.9299 71.2351 50.4048 68.71 47.2899 68.71C44.175 68.71 41.6499 71.2351 41.6499 74.35C41.6499 77.4648 44.175 79.99 47.2899 79.99Z" fill="#5063F0"/>
<path d="M58.6198 40.0904H9.70981C8.57523 40.0238 7.47474 39.6776 6.50638 39.0826C5.53803 38.4877 4.7319 37.6624 4.15981 36.6804C3.23995 35.2598 2.73928 33.6086 2.71526 31.9164C2.69124 30.2242 3.14484 28.5595 4.024 27.1134C4.90315 25.6672 6.17224 24.4983 7.6856 23.7407C9.19896 22.9831 10.8953 22.6676 12.5798 22.8304C14.0498 22.9104 14.3598 22.3604 14.5798 21.1204C15.3007 16.4518 17.4645 12.1259 20.7678 8.74912C24.0711 5.37229 28.3483 3.11384 32.9998 2.29036H33.1098C38.3331 1.55937 43.6467 2.70001 48.1098 5.51036C48.5498 5.79036 48.9898 6.09036 49.4198 6.42036C51.8951 8.31981 53.96 10.701 55.4898 13.4204L56.1998 14.6304" fill="white"/>
<path d="M35.3101 27.5701C35.578 25.5651 36.4617 23.6928 37.8392 22.2115C39.2166 20.7301 41.0199 19.7129 43.0001 19.3001C43.6313 19.1967 44.2705 19.1498 44.9101 19.1601C47.414 19.1589 49.8257 20.1057 51.6601 21.8101C52.9564 23.0405 53.8815 24.61 54.3301 26.3401" fill="white"/>
<path d="M48.52 19.77C51.35 15.34 57.86 13.71 63.06 14.77C65.3645 15.2076 67.4879 16.3176 69.1625 17.9602C70.8371 19.6028 71.988 21.7043 72.47 24C73.14 26.91 73.35 28 75.56 29.58C78.72 31.8 78.5 36.76 75.94 39.1C75.2666 39.7051 74.4044 40.0584 73.5 40.1H56.58" fill="white"/>
<path d="M71.5 39.7202H8.99991C7.86355 39.6537 6.76053 39.3112 5.78646 38.7222C4.81238 38.1332 3.99663 37.3156 3.40991 36.3402C2.56145 35.0056 2.07961 33.4711 2.0129 31.8911C1.94618 30.3111 2.29696 28.7415 3.02991 27.3402C3.89708 25.7859 5.19423 24.5148 6.76576 23.6794C8.3373 22.844 10.1165 22.4797 11.8899 22.6302C13.3699 22.7102 13.6799 22.1702 13.8899 20.9402C14.641 16.2711 16.8379 11.9553 20.1711 8.60062C23.5042 5.24592 27.8058 3.02133 32.4699 2.24017H32.5899C37.8304 1.51069 43.161 2.63554 47.6599 5.42017C48.0999 5.6935 48.5399 5.9935 48.9799 6.32017C51.4574 8.19253 53.5349 10.5421 55.0899 13.2302L55.7999 14.4302" stroke="white" stroke-width="4" stroke-miterlimit="10"/>
<path d="M34.77 27.3102C35.0508 25.3048 35.9504 23.437 37.3432 21.9671C38.736 20.4972 40.5527 19.4985 42.54 19.1102C43.1755 19.0164 43.818 18.9796 44.46 19.0002C46.9712 18.9945 49.3935 19.9292 51.25 21.6202C52.542 22.8414 53.4727 24.3949 53.94 26.1102" stroke="white" stroke-width="4" stroke-miterlimit="10"/>
<path d="M48.0601 19.5702C50.9101 15.1902 57.4601 13.5702 62.6901 14.6502C64.9965 15.0677 67.1274 16.16 68.813 17.7887C70.4987 19.4174 71.6635 21.5094 72.1601 23.8002C72.8301 26.6902 73.0401 27.8002 75.2701 29.3302C78.4501 31.5302 78.2701 36.4502 75.6601 38.7702C74.9684 39.3579 74.0973 39.6929 73.1901 39.7202H70.0001" stroke="white" stroke-width="4" stroke-miterlimit="10"/>
</g>
<defs>
<clipPath id="clip0_3430_1515">
<rect width="79.62" height="81.74" fill="white"/>
</clipPath>
</defs>
</svg>
