<svg width="114" height="79" viewBox="0 0 114 79" fill="none" xmlns="http://www.w3.org/2000/svg">
<g clip-path="url(#clip0_3430_1530)">
<path d="M40.3999 15.8799C35.494 15.8779 30.6978 17.331 26.6179 20.0553C22.5381 22.7796 19.3578 26.6527 17.4796 31.1847C15.6013 35.7167 15.1093 40.704 16.0659 45.5157C17.0225 50.3273 19.3847 54.7472 22.8536 58.2161C26.3226 61.6851 30.7424 64.0473 35.5541 65.0038C40.3657 65.9604 45.353 65.4685 49.885 63.5902C54.417 61.7119 58.2902 58.5317 61.0145 54.4518C63.7388 50.3719 65.1918 45.5757 65.1899 40.6699C65.1819 34.0976 62.5676 27.7968 57.9203 23.1495C53.273 18.5022 46.9721 15.8878 40.3999 15.8799V15.8799Z" fill="#F5B952"/>
<path d="M90.9999 76.9998H38.9199C36.7299 76.9998 33.8299 75.2798 32.9999 73.4198C32.0924 72.0046 31.5771 70.3737 31.5068 68.6939C31.4366 67.0142 31.8138 65.3459 32.5999 63.8598C33.5141 62.2124 34.8848 60.8641 36.547 59.9771C38.2093 59.0901 40.0924 58.7021 41.9699 58.8598C43.5399 58.9398 43.8699 58.3598 44.0599 57.0598C44.8626 52.1178 47.1952 47.5521 50.7293 44.0055C54.2633 40.4589 58.8207 38.1101 63.7599 37.2898H63.8799C69.4456 36.5117 75.1079 37.7114 79.8799 40.6798C80.3399 40.9598 80.8099 41.2798 81.2699 41.6198C83.8931 43.6039 86.0929 46.0928 87.7399 48.9398L88.4899 50.2098" fill="#F9FCFE"/>
<path d="M66.1899 63.8201C66.4904 61.6978 67.4443 59.7216 68.9192 58.1662C70.394 56.6107 72.3166 55.553 74.4199 55.1401C75.0807 55.0299 75.7501 54.9797 76.4199 54.9901C79.0802 54.9835 81.6461 55.9756 83.6099 57.7701C84.9846 59.0547 85.969 60.7011 86.4499 62.5201" fill="#F9FCFE"/>
<path d="M80.2598 55.6301C83.2598 50.9801 90.2098 49.2701 95.7498 50.4101C98.1855 50.8613 100.434 52.0216 102.213 53.7454C103.992 55.4692 105.222 57.6798 105.75 60.1001C106.46 63.1601 106.68 64.3201 109.04 65.9601C112.4 68.2901 112.17 73.4901 109.45 75.9601C108.72 76.5824 107.799 76.9353 106.84 76.9601H88.8398" fill="#F9FCFE"/>
<path d="M40.21 15.51V2" stroke="#F5B952" stroke-width="4" stroke-miterlimit="10" stroke-linecap="square"/>
<path d="M15.51 40.4702H2" stroke="#F5B952" stroke-width="4" stroke-miterlimit="10" stroke-linecap="square"/>
<path d="M22.7001 22.8798L13.1401 13.3198" stroke="#F5B952" stroke-width="4" stroke-miterlimit="10" stroke-linecap="square"/>
<path d="M57.8101 22.7001L67.3601 13.1401" stroke="#F5B952" stroke-width="4" stroke-miterlimit="10" stroke-linecap="square"/>
<path d="M22.8798 57.9902L13.3198 67.5402" stroke="#F5B952" stroke-width="4" stroke-miterlimit="10" stroke-linecap="square"/>
<path d="M105.5 76.9998H38.9199C36.7299 76.9998 33.8299 75.2798 32.9999 73.4198C32.0924 72.0046 31.5771 70.3737 31.5068 68.6939C31.4366 67.0142 31.8138 65.3459 32.5999 63.8598C33.5141 62.2124 34.8848 60.8641 36.547 59.9771C38.2093 59.0901 40.0924 58.7021 41.9699 58.8598C43.5399 58.9398 43.8699 58.3598 44.0599 57.0598C44.8626 52.1178 47.1952 47.5521 50.7293 44.0055C54.2633 40.4589 58.8207 38.1101 63.7599 37.2898H63.8799C69.4456 36.5117 75.1079 37.7114 79.8799 40.6798C80.3399 40.9598 80.8099 41.2798 81.2699 41.6198C83.8931 43.6039 86.0929 46.0928 87.7399 48.9398L88.4899 50.2098" stroke="#F9FCFE" stroke-width="4" stroke-miterlimit="10"/>
<path d="M66.1899 63.8201C66.4904 61.6978 67.4443 59.7216 68.9192 58.1662C70.394 56.6107 72.3166 55.553 74.4199 55.1401C75.0807 55.0299 75.7501 54.9797 76.4199 54.9901C79.0802 54.9835 81.6461 55.9756 83.6099 57.7701C84.9846 59.0547 85.969 60.7011 86.4499 62.5201" stroke="#F9FCFE" stroke-width="4" stroke-miterlimit="10"/>
<path d="M80.2598 55.6301C83.2598 50.9801 90.2098 49.2701 95.7498 50.4101C98.1855 50.8613 100.434 52.0216 102.213 53.7454C103.992 55.4692 105.222 57.6798 105.75 60.1001C106.46 63.1601 106.68 64.3201 109.04 65.9601C112.4 68.2901 112.17 73.4901 109.45 75.9601C108.72 76.5824 107.799 76.9353 106.84 76.9601H103.48" stroke="#F9FCFE" stroke-width="4" stroke-miterlimit="10"/>
</g>
<defs>
<clipPath id="clip0_3430_1530">
<rect width="113.56" height="78.96" fill="white"/>
</clipPath>
</defs>
</svg>
