<svg width="102" height="64" viewBox="0 0 102 64" fill="none" xmlns="http://www.w3.org/2000/svg">
<g clip-path="url(#clip0_3430_1547)">
<path d="M22.8998 4.39988C10.0998 5.89988 0.899819 17.2999 2.09982 30.1999C3.39982 42.9999 14.7998 52.1999 27.4998 50.8999C30.4998 50.4999 33.1998 49.6999 35.9998 48.1999C34.3998 47.0999 32.9998 45.8999 31.6998 44.4999C27.1998 40.2999 24.0998 34.8999 23.0998 28.7999C21.9998 21.3999 23.9998 14.2999 26.2998 9.39988C27.0998 7.79988 27.8998 5.99988 28.8998 4.49988C26.9998 4.09988 24.8998 4.09988 22.8998 4.39988Z" fill="#EAD88C"/>
<path d="M78.6999 61.1003H26.5999C24.3999 61.1003 21.4999 59.4003 20.6999 57.5003C18.7999 54.6003 18.6999 51.0003 20.2999 47.9003C22.1999 44.5003 25.7999 42.6003 29.6999 42.9003C31.2999 43.0003 31.5999 42.4003 31.7999 41.1003C33.4999 31.0003 41.3999 23.0003 51.4999 21.4003H51.5999C57.0999 20.6003 62.7999 21.8003 67.5999 24.8003C68.0999 25.1003 68.4999 25.4003 68.9999 25.7003C71.5999 27.7003 73.7999 30.2003 75.4999 33.0003L76.2999 34.3003" fill="white"/>
<path d="M53.8999 48.0001C54.4999 43.7001 57.7999 40.2001 62.0999 39.3001C62.7999 39.2001 63.3999 39.1001 64.0999 39.1001C66.7999 39.1001 69.2999 40.1001 71.2999 41.9001C72.6999 43.2001 73.6999 44.8001 74.1999 46.7001" fill="white"/>
<path d="M68 39.8004C71 35.2004 78 33.4004 83.5 34.6004C88.5 35.5004 92.4 39.3004 93.5 44.3004C94.2 47.4004 94.4 48.5004 96.8 50.2004C100.2 52.5004 99.9 57.7004 97.2 60.2004C96.5 60.8004 95.6 61.2004 94.6 61.2004H76.6" fill="white"/>
<path d="M92 61.1L26.5999 61.0002C24.3999 61.0002 21.4999 59.3002 20.6999 57.4002C18.7999 54.5002 18.6999 50.9002 20.2999 47.9002C22.1999 44.5002 25.7999 42.6002 29.6999 42.9002C31.2999 43.0002 31.5999 42.4002 31.7999 41.1002C33.3999 31.0002 41.3999 23.0002 51.4999 21.3002H51.5999C57.0999 20.5002 62.7999 21.7002 67.5999 24.7002C68.0999 25.0002 68.5999 25.3002 68.9999 25.6002C71.5999 27.6002 73.7999 30.1002 75.4999 32.9002L76.2999 34.2002" stroke="white" stroke-width="4" stroke-miterlimit="10"/>
<path d="M53.8999 47.8004C54.4999 43.5004 57.7999 40.0004 62.0999 39.1004C62.7999 39.0004 63.3999 38.9004 64.0999 39.0004C66.7999 39.0004 69.2999 40.0004 71.2999 41.8004C72.6999 43.1004 73.6999 44.7004 74.1999 46.6004" stroke="white" stroke-width="4" stroke-miterlimit="10"/>
<path d="M68 39.7001C71 35.1001 78 33.4001 83.5 34.5001C88.5 35.4001 92.4 39.2001 93.5 44.2001C94.2 47.2001 94.4 48.4001 96.8 50.1001C100.2 52.4001 99.9 57.6001 97.2 60.1001C96.5 60.7001 95.6 61.1001 94.6 61.1001H91.3" stroke="white" stroke-width="4" stroke-miterlimit="10"/>
</g>
<defs>
<clipPath id="clip0_3430_1547">
<rect width="101.3" height="63.2" fill="white"/>
</clipPath>
</defs>
</svg>
