<svg width="96" height="91" viewBox="0 0 96 91" fill="none" xmlns="http://www.w3.org/2000/svg">
<g clip-path="url(#clip0_3428_1254)">
<path d="M23.3002 3.60007C10.5002 5.10007 1.30021 16.5001 2.50021 29.4001C3.80021 42.2001 15.2002 51.4001 28.0002 50.1001C31.0002 49.7001 33.7002 48.9001 36.5002 47.4001C34.9002 46.3001 33.5002 45.1001 32.2002 43.7001C27.7002 39.5001 24.6002 34.1001 23.6002 28.0001C22.5002 20.6001 24.5002 13.5001 26.8002 8.60007C27.6002 7.00007 28.4002 5.20007 29.4002 3.70007C27.4002 3.30007 25.3002 3.30007 23.3002 3.60007Z" fill="#EAD88C"/>
<path d="M74.6002 56.4H25.9002C23.6002 56.3 21.5002 55 20.4002 53C17.7002 48.8 19.0002 43.2 23.2002 40.6C24.9002 39.5 26.8002 39.1 28.8002 39.2C30.3002 39.3 30.6002 38.7 30.8002 37.5C32.3002 27.9 39.6002 20.4 49.2002 18.7H49.3002C54.5002 18 59.8002 19.1 64.2002 21.9C64.6002 22.2 65.1002 22.5 65.5002 22.8C67.9002 24.7 70.0002 27.1 71.5002 29.7L72.2002 30.9" fill="white"/>
<path d="M51.4004 43.9001C51.9004 39.8001 55.0004 36.5001 59.1004 35.7001C59.7004 35.6001 60.4004 35.6001 61.0004 35.6001C63.5004 35.6001 65.9004 36.5001 67.7004 38.2001C69.0004 39.4001 69.9004 41.0001 70.4004 42.7001" fill="white"/>
<path d="M64.5 37.1C67.3 32.7 73.8 31.1 79 32.1C83.7 33 87.4 36.6 88.4 41.3C89.1 44.2 89.3 45.3 91.5 46.9C94.6 49.1 94.4 54 91.9 56.4C91.2 57 90.4 57.3 89.5 57.4H72.7" fill="white"/>
<path d="M30.7002 85.6001L36.1002 79.9001L41.4002 85.4001" stroke="white" stroke-width="2.5" stroke-miterlimit="10"/>
<path d="M41.4002 63.4001L36.0002 69.1001L30.7002 63.6001" stroke="white" stroke-width="2.5" stroke-miterlimit="10"/>
<path d="M36 60.7V88.1" stroke="white" stroke-width="2.5" stroke-miterlimit="10"/>
<path d="M47.2001 79.7001L41.6001 74.4001L47.1001 69.1001" stroke="white" stroke-width="2.5" stroke-miterlimit="10"/>
<path d="M25.1001 69.1001L30.7001 74.5001L25.2001 79.7001" stroke="white" stroke-width="2.5" stroke-miterlimit="10"/>
<path d="M22.4004 74.5H49.7004" stroke="white" stroke-width="2.5" stroke-miterlimit="10"/>
<path d="M85.7 78.8L79.5 84.7001" stroke="#5063F0" stroke-width="3" stroke-miterlimit="10" stroke-linecap="round"/>
<path d="M64.6004 78.8L58.4004 84.7001" stroke="#5063F0" stroke-width="3" stroke-miterlimit="10" stroke-linecap="round"/>
<path d="M85.7 67L79.5 72.9" stroke="#5063F0" stroke-width="3" stroke-miterlimit="10" stroke-linecap="round"/>
<path d="M64.6004 67L58.4004 72.9" stroke="#5063F0" stroke-width="3" stroke-miterlimit="10" stroke-linecap="round"/>
<path d="M86.5 55.9L24.9843 56C22.6929 55.9019 20.6007 54.6262 19.4052 52.6636C17.7116 50.014 17.5124 46.5795 19.0067 43.8318C20.8 40.6916 24.1873 38.9253 27.7738 39.2197C29.2682 39.3178 29.567 38.729 29.7663 37.5515C31.2607 28.1309 38.7326 20.7712 48.2966 19.2011H48.3963C53.5768 18.5142 58.9566 19.5936 63.4397 22.3413C63.8382 22.6356 64.3363 22.93 64.7348 23.2244C67.2255 25.0889 69.3176 27.3459 70.812 29.9954L71.5094 31.173" stroke="white" stroke-width="4" stroke-miterlimit="10"/>
<path d="M51.1001 43.5001C51.7001 39.4001 54.8001 36.1001 58.9001 35.3001C59.5001 35.2001 60.2001 35.1001 60.8001 35.2001C63.3001 35.2001 65.7001 36.1001 67.6001 37.8001C68.9001 39.0001 69.8001 40.6001 70.3001 42.3001" stroke="white" stroke-width="4" stroke-miterlimit="10"/>
<path d="M64.3003 35.8C67.2003 31.4 73.7003 29.8 78.9003 30.9C83.6003 31.8 87.3003 35.4 88.4003 40.1C89.1003 43 89.3003 44.1 91.5003 45.6C94.7003 47.8 94.5003 52.7 91.9003 55C91.2003 55.6 90.3003 55.9 89.4003 55.9H86.2003" stroke="white" stroke-width="4" stroke-miterlimit="10"/>
</g>
<defs>
<clipPath id="clip0_3428_1254">
<rect width="95.9" height="90.1" fill="white"/>
</clipPath>
</defs>
</svg>
