<svg width="102" height="101" viewBox="0 0 102 101" fill="none" xmlns="http://www.w3.org/2000/svg">
<g clip-path="url(#clip0_3430_1278)">
<path d="M36.5201 13.8799C32.0439 13.8799 27.6683 15.2074 23.9466 17.6944C20.2249 20.1815 17.3243 23.7164 15.6118 27.8521C13.8993 31.9877 13.4517 36.5384 14.3257 40.9285C15.1997 45.3185 17.356 49.3508 20.5219 52.5152C23.6877 55.6797 27.7209 57.8342 32.1114 58.7063C36.5018 59.5783 41.0523 59.1288 45.1872 57.4144C49.3221 55.7001 52.8558 52.798 55.3412 49.0752C57.8266 45.3524 59.1521 40.9761 59.1501 36.4999C59.1422 30.5014 56.7551 24.751 52.5126 20.5104C48.2701 16.2697 42.5186 13.8852 36.5201 13.8799V13.8799Z" fill="#F5B952"/>
<path d="M81.1799 68.4H34.9999C33.9326 68.3402 32.8961 68.02 31.981 67.4674C31.0658 66.9149 30.2999 66.1467 29.7499 65.23C28.9452 63.9766 28.4878 62.5319 28.4246 61.0437C28.3613 59.5555 28.6945 58.0772 29.3899 56.76C30.2047 55.304 31.4218 54.1137 32.8956 53.3316C34.3694 52.5495 36.0374 52.2087 37.6999 52.35C39.0999 52.42 39.3899 51.91 39.5599 50.75C40.2679 46.372 42.3316 42.3264 45.4603 39.1833C48.5891 36.0402 52.6252 33.958 56.9999 33.23H57.0999C62.022 32.5523 67.0263 33.6133 71.2499 36.23C71.6599 36.48 72.0799 36.77 72.4899 37.07C74.8135 38.8297 76.7617 41.0363 78.2199 43.56L78.8799 44.69" fill="white"/>
<path d="M59.1699 56.7499C59.4377 54.8688 60.2844 53.1178 61.5925 51.7398C62.9006 50.3617 64.6053 49.4251 66.4699 49.0599C67.062 48.9663 67.6605 48.9195 68.2599 48.9199C70.6197 48.9214 72.8943 49.802 74.6399 51.3899C75.8578 52.5294 76.731 53.9882 77.1599 55.5999" fill="white"/>
<path d="M71.6499 49.49C74.3199 45.38 80.4699 43.86 85.3799 44.87C87.5433 45.2665 89.5413 46.2934 91.1229 47.8217C92.7046 49.35 93.7994 51.3115 94.2699 53.46C94.8899 56.17 95.0899 57.2 97.1899 58.65C100.19 60.71 99.9599 65.33 97.5399 67.51C96.8908 68.0562 96.0777 68.3695 95.2299 68.4H79.2299" fill="white"/>
<path d="M36.23 97.89L41.6 92.23L46.88 97.72" stroke="white" stroke-width="2.5" stroke-miterlimit="10"/>
<path d="M46.88 75.75L41.52 81.4L36.23 75.91" stroke="white" stroke-width="2.5" stroke-miterlimit="10"/>
<path d="M41.5098 73.04V100.4" stroke="white" stroke-width="2.5" stroke-miterlimit="10"/>
<path d="M52.7201 92.0499L47.0601 86.6799L52.5501 81.3999" stroke="white" stroke-width="2.5" stroke-miterlimit="10"/>
<path d="M30.5801 81.3999L36.2301 86.7599L30.7501 92.0499" stroke="white" stroke-width="2.5" stroke-miterlimit="10"/>
<path d="M27.8799 86.76H55.2399" stroke="white" stroke-width="2.5" stroke-miterlimit="10"/>
<path d="M91.22 91.0901L85.02 96.9701" stroke="#5063F0" stroke-width="3" stroke-miterlimit="10" stroke-linecap="round"/>
<path d="M70.1202 91.0901L63.9102 96.9701" stroke="#5063F0" stroke-width="3" stroke-miterlimit="10" stroke-linecap="round"/>
<path d="M91.22 79.3L85.02 85.18" stroke="#5063F0" stroke-width="3" stroke-miterlimit="10" stroke-linecap="round"/>
<path d="M70.1202 79.3L63.9102 85.18" stroke="#5063F0" stroke-width="3" stroke-miterlimit="10" stroke-linecap="round"/>
<path d="M35.9702 14.01V2" stroke="#F5B952" stroke-width="4" stroke-miterlimit="10" stroke-linecap="square"/>
<path d="M14.01 36.2H2" stroke="#F5B952" stroke-width="4" stroke-miterlimit="10" stroke-linecap="square"/>
<path d="M20.3999 20.5601L11.8999 12.0601" stroke="#F5B952" stroke-width="4" stroke-miterlimit="10" stroke-linecap="square"/>
<path d="M51.6099 20.3999L60.0999 11.8999" stroke="#F5B952" stroke-width="4" stroke-miterlimit="10" stroke-linecap="square"/>
<path d="M20.5601 51.77L12.0601 60.26" stroke="#F5B952" stroke-width="4" stroke-miterlimit="10" stroke-linecap="square"/>
<path d="M92.5 68.6299H34.8201C33.7497 68.5723 32.7099 68.2521 31.7926 67.6975C30.8752 67.1429 30.1085 66.371 29.5601 65.4499C28.7582 64.1991 28.3023 62.758 28.2391 61.2735C28.1758 59.789 28.5075 58.3144 29.2001 56.9999C30.0146 55.5377 31.2339 54.3419 32.7116 53.556C34.1893 52.7701 35.8625 52.4277 37.5301 52.5699C38.9301 52.6399 39.2201 52.1299 39.3901 50.9699C40.095 46.5698 42.1646 42.5025 45.3066 39.3425C48.4487 36.1826 52.5042 34.0898 56.9001 33.3599H57.0101C61.942 32.6775 66.9573 33.7386 71.1901 36.3599C71.6001 36.6199 72.0201 36.8999 72.4301 37.1999C74.7652 38.961 76.7209 41.1752 78.1801 43.7099L78.8501 44.8399" stroke="white" stroke-width="4" stroke-miterlimit="10"/>
<path d="M59.0601 57.0001C59.3274 55.1151 60.1748 53.3601 61.4847 51.9786C62.7946 50.597 64.502 49.6574 66.3701 49.2901C66.9682 49.1915 67.5738 49.1446 68.1801 49.1501C70.5437 49.1471 72.8229 50.0282 74.5701 51.6201C75.7827 52.7535 76.6583 54.2001 77.1001 55.8001" stroke="white" stroke-width="4" stroke-miterlimit="10"/>
<path d="M71.5698 49.67C74.2498 45.54 80.4098 44 85.3398 45C87.5092 45.3987 89.5124 46.4296 91.0976 47.9633C92.6829 49.497 93.7796 51.465 94.2498 53.62C94.8798 56.33 95.0798 57.37 97.1798 58.82C100.18 60.89 99.9598 65.52 97.5398 67.71C96.8869 68.2562 96.0706 68.5694 95.2198 68.6H92.2198" stroke="white" stroke-width="4" stroke-miterlimit="10"/>
<path d="M84.3799 68.6299H89.1799" stroke="white" stroke-width="4" stroke-miterlimit="10"/>
</g>
<defs>
<clipPath id="clip0_3430_1278">
<rect width="101.39" height="100.4" fill="white"/>
</clipPath>
</defs>
</svg>
