<svg width="85" height="74" viewBox="0 0 85 74" fill="none" xmlns="http://www.w3.org/2000/svg">
<g clip-path="url(#clip0_3430_1579)">
<path d="M61.6305 41.86H9.79045C7.62045 41.86 4.79045 40.15 3.91045 38.29C3.00723 36.8842 2.49416 35.2636 2.42387 33.5941C2.35358 31.9247 2.72859 30.2667 3.51045 28.79C4.41731 27.1474 5.7793 25.8017 7.43267 24.9147C9.08604 24.0277 10.9604 23.6372 12.8305 23.79C14.4005 23.87 14.7205 23.3 14.9105 22.01C15.7169 17.1004 18.0411 12.5667 21.5565 9.04587C25.072 5.52503 29.6021 3.19391 34.5105 2.37997H34.6305C40.1493 1.61088 45.7633 2.79595 50.5005 5.72997C50.9705 6.00997 51.4305 6.32997 51.8905 6.66997C54.5085 8.655 56.699 11.1481 58.3305 14L59.0705 15.27" fill="white"/>
<path d="M36.9302 28.7803C37.2259 26.6694 38.1729 24.7034 39.6392 23.1564C41.1056 21.6094 43.0181 20.5585 45.1102 20.1503C45.7713 20.0416 46.4402 19.9881 47.1102 19.9903C49.7562 19.9861 52.3076 20.9746 54.2602 22.7603C55.6316 24.0395 56.6158 25.6785 57.1002 27.4903" fill="white"/>
<path d="M50.9302 20.6302C53.9302 16.0102 60.8302 14.3102 66.3402 15.4402C68.7719 15.8817 71.0188 17.0325 72.7982 18.7478C74.5775 20.4631 75.8099 22.6663 76.3402 25.0802C77.0402 28.0802 77.2602 29.2802 79.6102 30.9102C82.9502 33.2302 82.7202 38.4102 80.0102 40.8502C79.2839 41.4655 78.3714 41.8178 77.4202 41.8502H59.4702" fill="white"/>
<path d="M12.9102 70.8099L18.2702 65.1499L23.5502 70.6399" stroke="white" stroke-width="2.5" stroke-miterlimit="10"/>
<path d="M23.5502 48.6699L18.1902 54.3199L12.9102 48.8299" stroke="white" stroke-width="2.5" stroke-miterlimit="10"/>
<path d="M18.1904 45.9702V73.3202" stroke="white" stroke-width="2.5" stroke-miterlimit="10"/>
<path d="M29.3902 64.9703L23.7402 59.6003L29.2302 54.3203" stroke="white" stroke-width="2.5" stroke-miterlimit="10"/>
<path d="M7.25 54.3203L12.91 59.6903L7.42 64.9703" stroke="white" stroke-width="2.5" stroke-miterlimit="10"/>
<path d="M4.55029 59.6899H31.9103" stroke="white" stroke-width="2.5" stroke-miterlimit="10"/>
<path d="M67.9004 64.0103L61.6904 69.8903" stroke="#5063F0" stroke-width="3" stroke-miterlimit="10" stroke-linecap="round"/>
<path d="M46.7903 64.0103L40.5903 69.8903" stroke="#5063F0" stroke-width="3" stroke-miterlimit="10" stroke-linecap="round"/>
<path d="M67.9004 51.2202L61.6904 57.1002" stroke="#5063F0" stroke-width="3" stroke-miterlimit="10" stroke-linecap="round"/>
<path d="M46.7903 51.2202L40.5903 57.1002" stroke="#5063F0" stroke-width="3" stroke-miterlimit="10" stroke-linecap="round"/>
<path d="M74.5 41.9401H9.42024C7.24024 41.9401 4.34024 40.2201 3.51024 38.3601C2.60117 36.9458 2.08417 35.3153 2.01213 33.6356C1.9401 31.9558 2.3156 30.2871 3.10024 28.8001C4.01616 27.1519 5.38858 25.8032 7.05257 24.9162C8.71655 24.0293 10.6013 23.6417 12.4802 23.8001C14.0502 23.8801 14.3702 23.3101 14.5702 22.0101C15.3719 17.0714 17.7034 12.5087 21.2359 8.96543C24.7685 5.42212 29.3239 3.07681 34.2602 2.2601H34.3802C39.9446 1.48585 45.6045 2.68151 50.3802 5.6401C50.8502 5.9301 51.3202 6.2501 51.7802 6.6401C54.403 8.62181 56.6 11.1113 58.2402 13.9601L59.0002 15.1601" stroke="white" stroke-width="4" stroke-miterlimit="10"/>
<path d="M36.7002 28.7902C37.0006 26.6705 37.9534 24.6968 39.4264 23.1432C40.8994 21.5895 42.8195 20.533 44.9202 20.1202C45.6089 20.0213 46.3047 19.9812 47.0002 20.0002C49.6614 19.9983 52.2268 20.9937 54.1902 22.7902C55.5442 24.0703 56.5169 25.7006 57.0002 27.5002" stroke="white" stroke-width="4" stroke-miterlimit="10"/>
<path d="M50.77 20.6101C53.77 15.9601 60.72 14.2501 66.26 15.3901C68.6957 15.8413 70.944 17.0015 72.723 18.7253C74.5019 20.4492 75.7324 22.6598 76.26 25.0801C76.96 28.1401 77.19 29.3001 79.55 30.9401C82.91 33.2601 82.67 38.4701 79.95 40.9401C79.2199 41.5554 78.3043 41.9076 77.35 41.9401H74" stroke="white" stroke-width="4" stroke-miterlimit="10"/>
</g>
<defs>
<clipPath id="clip0_3430_1579">
<rect width="84.06" height="73.32" fill="white"/>
</clipPath>
</defs>
</svg>
