<svg width="102" height="97" viewBox="0 0 102 97" fill="none" xmlns="http://www.w3.org/2000/svg">
<g clip-path="url(#clip0_3428_1206)">
<path d="M36.5201 13.8799C32.0439 13.8799 27.6683 15.2074 23.9466 17.6944C20.2249 20.1815 17.3243 23.7164 15.6118 27.8521C13.8993 31.9877 13.4517 36.5384 14.3257 40.9285C15.1997 45.3185 17.356 49.3508 20.5219 52.5152C23.6877 55.6797 27.7209 57.8342 32.1114 58.7063C36.5018 59.5783 41.0523 59.1288 45.1872 57.4144C49.3221 55.7001 52.8558 52.798 55.3412 49.0752C57.8266 45.3524 59.1521 40.9761 59.1501 36.4999C59.1422 30.5014 56.7551 24.751 52.5126 20.5104C48.2701 16.2697 42.5186 13.8852 36.5201 13.8799V13.8799Z" fill="#F5B952"/>
<path d="M81.1002 69H34.7002C33.6278 68.9404 32.5864 68.6183 31.6675 68.0621C30.7486 67.5059 29.9804 66.7325 29.4302 65.81C28.6201 64.5512 28.1597 63.0994 28.0964 61.6038C28.0331 60.1082 28.3693 58.6227 29.0702 57.3C29.8889 55.8371 31.112 54.6412 32.5929 53.8555C34.0738 53.0698 35.7499 52.7276 37.4202 52.87C38.8202 52.94 39.1102 52.43 39.2802 51.27C39.9917 46.8687 42.0675 42.8021 45.2147 39.6441C48.3619 36.4862 52.4214 34.3965 56.8202 33.67H56.9302C61.8716 32.9881 66.8962 34.0489 71.1402 36.67C71.5502 36.93 71.9702 37.21 72.3802 37.52C74.7127 39.2748 76.671 41.4779 78.1402 44L78.8102 45.14" fill="white"/>
<path d="M59 57.2899C59.2655 55.4005 60.1132 53.6408 61.4251 52.2555C62.7369 50.8701 64.4479 49.9279 66.32 49.5599C66.9188 49.4667 67.524 49.4198 68.13 49.4199C70.4982 49.4182 72.7813 50.3029 74.53 51.8999C75.7542 53.0458 76.6339 54.5108 77.07 56.1299" fill="white"/>
<path d="M71.52 50C74.21 45.86 80.38 44.33 85.31 45.35C87.4881 45.7447 89.4997 46.7777 91.0897 48.3177C92.6796 49.8578 93.7761 51.8356 94.24 54C94.87 56.72 95.07 57.76 97.18 59.22C100.18 61.29 99.96 65.92 97.53 68.12C96.8771 68.6662 96.0608 68.9794 95.21 69.01H79.21" fill="white"/>
<path d="M85.22 89.22L79.02 95.09" stroke="#5063F0" stroke-width="3" stroke-miterlimit="10" stroke-linecap="round"/>
<path d="M43.0101 89.22L36.8101 95.09" stroke="#5063F0" stroke-width="3" stroke-miterlimit="10" stroke-linecap="round"/>
<path d="M64.1202 89.22L57.9102 95.09" stroke="#5063F0" stroke-width="3" stroke-miterlimit="10" stroke-linecap="round"/>
<path d="M85.22 76.4299L79.02 82.3099" stroke="#5063F0" stroke-width="3" stroke-miterlimit="10" stroke-linecap="round"/>
<path d="M43.0101 76.4299L36.8101 82.3099" stroke="#5063F0" stroke-width="3" stroke-miterlimit="10" stroke-linecap="round"/>
<path d="M64.1202 76.4299L57.9102 82.3099" stroke="#5063F0" stroke-width="3" stroke-miterlimit="10" stroke-linecap="round"/>
<path d="M35.9702 14.01V2" stroke="#F5B952" stroke-width="4" stroke-miterlimit="10" stroke-linecap="square"/>
<path d="M14.01 36.2H2" stroke="#F5B952" stroke-width="4" stroke-miterlimit="10" stroke-linecap="square"/>
<path d="M20.3999 20.5601L11.8999 12.0601" stroke="#F5B952" stroke-width="4" stroke-miterlimit="10" stroke-linecap="square"/>
<path d="M51.6099 20.3999L60.0999 11.8999" stroke="#F5B952" stroke-width="4" stroke-miterlimit="10" stroke-linecap="square"/>
<path d="M20.5601 51.77L12.0601 60.26" stroke="#F5B952" stroke-width="4" stroke-miterlimit="10" stroke-linecap="square"/>
<path d="M95.5 68.6299H34.8201C33.7497 68.5723 32.7099 68.2521 31.7926 67.6975C30.8752 67.1429 30.1085 66.371 29.5601 65.4499C28.7582 64.1991 28.3023 62.758 28.2391 61.2735C28.1758 59.789 28.5075 58.3144 29.2001 56.9999C30.0146 55.5377 31.2339 54.3419 32.7116 53.556C34.1893 52.7701 35.8625 52.4277 37.5301 52.5699C38.9301 52.6399 39.2201 52.1299 39.3901 50.9699C40.095 46.5698 42.1646 42.5025 45.3066 39.3425C48.4487 36.1826 52.5042 34.0898 56.9001 33.3599H57.0101C61.942 32.6775 66.9573 33.7386 71.1901 36.3599C71.6001 36.6199 72.0201 36.8999 72.4301 37.1999C74.7652 38.961 76.7209 41.1752 78.1801 43.7099L78.8501 44.8399" fill="white"/>
<path d="M95.5 68.6299H34.8201C33.7497 68.5723 32.7099 68.2521 31.7926 67.6975C30.8752 67.1429 30.1085 66.371 29.5601 65.4499C28.7582 64.1991 28.3023 62.758 28.2391 61.2735C28.1758 59.789 28.5075 58.3144 29.2001 56.9999C30.0146 55.5377 31.2339 54.3419 32.7116 53.556C34.1893 52.7701 35.8625 52.4277 37.5301 52.5699C38.9301 52.6399 39.2201 52.1299 39.3901 50.9699C40.095 46.5698 42.1646 42.5025 45.3066 39.3425C48.4487 36.1826 52.5042 34.0898 56.9001 33.3599H57.0101C61.942 32.6775 66.9573 33.7386 71.1901 36.3599C71.6001 36.6199 72.0201 36.8999 72.4301 37.1999C74.7652 38.961 76.7209 41.1752 78.1801 43.7099L78.8501 44.8399" stroke="white" stroke-width="4" stroke-miterlimit="10"/>
<path d="M59.0601 57.0001C59.3274 55.1151 60.1748 53.3601 61.4847 51.9786C62.7946 50.597 64.502 49.6574 66.3701 49.2901C66.9682 49.1915 67.5738 49.1446 68.1801 49.1501C70.5437 49.1471 72.8229 50.0282 74.5701 51.6201C75.7827 52.7535 76.6583 54.2001 77.1001 55.8001" fill="white"/>
<path d="M59.0601 57.0001C59.3274 55.1151 60.1748 53.3601 61.4847 51.9786C62.7946 50.597 64.502 49.6574 66.3701 49.2901C66.9682 49.1915 67.5738 49.1446 68.1801 49.1501C70.5437 49.1471 72.8229 50.0282 74.5701 51.6201C75.7827 52.7535 76.6583 54.2001 77.1001 55.8001" stroke="white" stroke-width="4" stroke-miterlimit="10"/>
<path d="M71.5698 49.67C74.2498 45.54 80.4098 44 85.3398 45C87.5092 45.3987 89.5124 46.4296 91.0976 47.9633C92.6829 49.497 93.7796 51.465 94.2498 53.62C94.8798 56.33 95.0798 57.37 97.1798 58.82C100.18 60.89 99.9598 65.52 97.5398 67.71C96.8869 68.2562 96.0706 68.5694 95.2198 68.6H92.2198" fill="white"/>
<path d="M71.5698 49.67C74.2498 45.54 80.4098 44 85.3398 45C87.5092 45.3987 89.5124 46.4296 91.0976 47.9633C92.6829 49.497 93.7796 51.465 94.2498 53.62C94.8798 56.33 95.0798 57.37 97.1798 58.82C100.18 60.89 99.9598 65.52 97.5398 67.71C96.8869 68.2562 96.0706 68.5694 95.2198 68.6H92.2198" stroke="white" stroke-width="4" stroke-miterlimit="10"/>
</g>
<defs>
<clipPath id="clip0_3428_1206">
<rect width="101.39" height="96.59" fill="white"/>
</clipPath>
</defs>
</svg>
