<svg width="96" height="86" viewBox="0 0 96 86" fill="none" xmlns="http://www.w3.org/2000/svg">
<g clip-path="url(#clip0_3428_1167)">
<path d="M23.9999 3.60007C11.1999 5.10007 1.99992 16.5001 3.19992 29.4001C4.39992 42.2001 15.8999 51.5001 28.5999 50.1001C31.5999 49.7001 34.2999 48.9001 37.0999 47.4001C35.4999 46.3001 34.0999 45.1001 32.7999 43.7001C28.2999 39.5001 25.1999 34.1001 24.1999 28.0001C23.0999 20.6001 25.0999 13.5001 27.3999 8.60007C28.1999 7.00007 28.9999 5.20007 29.9999 3.70007C28.0999 3.30007 25.9999 3.30007 23.9999 3.60007Z" fill="#EAD88C"/>
<path d="M74.4001 60.4H24.9001C22.6001 60.3 20.5001 59 19.3001 57C17.5001 54.3 17.4001 50.8 18.9001 47.9C20.7001 44.7 24.2001 42.9 27.8001 43.2C29.3001 43.3 29.6001 42.7 29.8001 41.5C31.4001 31.9 38.9001 24.3 48.5001 22.7H48.6001C53.9001 22 59.2001 23.1 63.8001 25.9C64.2001 26.2 64.7001 26.5 65.1001 26.8C67.6001 28.7 69.7001 31.1 71.3001 33.8L72.0001 35" fill="white"/>
<path d="M50.7998 47.9002C51.3998 43.8002 54.4998 40.5002 58.5998 39.6002C59.1998 39.5002 59.8998 39.4002 60.4998 39.5002C62.9998 39.5002 65.4998 40.4002 67.2998 42.1002C68.5998 43.3002 69.4998 44.9002 69.9998 46.6002" fill="white"/>
<path d="M64.1001 40.2001C67.0001 35.8001 73.6001 34.2001 78.8001 35.2001C83.5001 36.1001 87.3001 39.7001 88.3001 44.4001C89.0001 47.3001 89.2001 48.4001 91.4001 50.0001C94.6001 52.2001 94.4001 57.2001 91.8001 59.5001C91.1001 60.1001 90.2001 60.5001 89.3001 60.5001H72.2001" fill="white"/>
<path d="M74.5001 59.8001H25.3001C23.0001 59.7001 20.9001 58.4001 19.7001 56.4001C18.0001 53.7001 17.8001 50.2001 19.3001 47.4001C21.1001 44.2001 24.5001 42.4001 28.2001 42.7001C29.7001 42.8001 30.0001 42.2001 30.2001 41.0001C31.7001 31.4001 39.2001 23.9001 48.8001 22.3001H48.9001C54.1001 21.6001 59.5001 22.7001 64.0001 25.5001C64.4001 25.8001 64.9001 26.1001 65.3001 26.4001C67.8001 28.3001 69.9001 30.6001 71.4001 33.3001L72.1001 34.5001" fill="white"/>
<path d="M74.5001 59.8001H25.3001C23.0001 59.7001 20.9001 58.4001 19.7001 56.4001C18.0001 53.7001 17.8001 50.2001 19.3001 47.4001C21.1001 44.2001 24.5001 42.4001 28.2001 42.7001C29.7001 42.8001 30.0001 42.2001 30.2001 41.0001C31.7001 31.4001 39.2001 23.9001 48.8001 22.3001H48.9001C54.1001 21.6001 59.5001 22.7001 64.0001 25.5001C64.4001 25.8001 64.9001 26.1001 65.3001 26.4001C67.8001 28.3001 69.9001 30.6001 71.4001 33.3001L72.1001 34.5001" stroke="white" stroke-width="4" stroke-miterlimit="10"/>
<path d="M51 47.4C51.6 43.3 54.7 40 58.8 39.2C59.4 39.1 60.1 39 60.7 39.1C63.2 39.1 65.6 40 67.5 41.7C68.8 42.9 69.7 44.5 70.2 46.2" fill="white"/>
<path d="M51 47.4C51.6 43.3 54.7 40 58.8 39.2C59.4 39.1 60.1 39 60.7 39.1C63.2 39.1 65.6 40 67.5 41.7C68.8 42.9 69.7 44.5 70.2 46.2" stroke="white" stroke-width="4" stroke-miterlimit="10"/>
<path d="M64.2998 39.7001C67.1998 35.3001 73.6998 33.7001 78.8998 34.8001C83.5998 35.7001 87.2998 39.3001 88.3998 44.0001C89.0998 46.9001 89.2998 48.0001 91.4998 49.5001C94.6998 51.7001 94.4998 56.6001 91.8998 58.9001C91.1998 59.5001 90.2998 59.8001 89.3998 59.8001H74" fill="white"/>
<path d="M64.2998 39.7001C67.1998 35.3001 73.6998 33.7001 78.8998 34.8001C83.5998 35.7001 87.2998 39.3001 88.3998 44.0001C89.0998 46.9001 89.2998 48.0001 91.4998 49.5001C94.6998 51.7001 94.4998 56.6001 91.8998 58.9001C91.1998 59.5001 90.2998 59.8001 89.3998 59.8001H74" stroke="white" stroke-width="4" stroke-miterlimit="10"/>
<path d="M80.7 78.3L74.5 84.2001" stroke="#5063F0" stroke-width="3" stroke-miterlimit="10" stroke-linecap="round"/>
<path d="M38.4998 78.3L32.2998 84.2001" stroke="#5063F0" stroke-width="3" stroke-miterlimit="10" stroke-linecap="round"/>
<path d="M59.5999 78.3L53.3999 84.2001" stroke="#5063F0" stroke-width="3" stroke-miterlimit="10" stroke-linecap="round"/>
<path d="M80.7 65.5L74.5 71.4" stroke="#5063F0" stroke-width="3" stroke-miterlimit="10" stroke-linecap="round"/>
<path d="M38.4998 65.5L32.2998 71.4" stroke="#5063F0" stroke-width="3" stroke-miterlimit="10" stroke-linecap="round"/>
<path d="M59.5999 65.5L53.3999 71.4" stroke="#5063F0" stroke-width="3" stroke-miterlimit="10" stroke-linecap="round"/>
</g>
<defs>
<clipPath id="clip0_3428_1167">
<rect width="95.9" height="85.8" fill="white"/>
</clipPath>
</defs>
</svg>
