<svg width="81" height="62" viewBox="0 0 81 62" fill="none" xmlns="http://www.w3.org/2000/svg">
<g clip-path="url(#clip0_3428_1148)">
<path d="M70.6899 19.51V8.09997C70.7467 7.20322 70.6176 6.30441 70.3105 5.45995C70.0035 4.61548 69.5253 3.84359 68.9058 3.19272C68.2863 2.54184 67.539 2.02604 66.7107 1.67768C65.8825 1.32931 64.9911 1.15591 64.0927 1.16835C63.1942 1.18079 62.308 1.3788 61.4897 1.74997C60.6714 2.12113 59.9387 2.65743 59.3375 3.3252C58.7362 3.99298 58.2795 4.77781 57.996 5.63046C57.7125 6.4831 57.6083 7.38514 57.6899 8.27997C57.6899 15.72 57.6899 23.15 57.6899 30.58C57.7296 31.113 57.6125 31.6459 57.3531 32.1132C57.0937 32.5805 56.7032 32.9618 56.2299 33.21C53.3103 35.1021 51.1611 37.9734 50.1686 41.3079C49.1761 44.6425 49.4052 48.2217 50.8149 51.4024C52.2245 54.5832 54.7223 57.157 57.8593 58.6614C60.9964 60.1657 64.5671 60.5021 67.9299 59.61C73.3399 58.08 76.9299 54.61 78.2499 49.45C79.8599 43.23 76.9999 36.89 71.8599 33C71.4608 32.74 71.1394 32.3768 70.9299 31.949C70.7204 31.5212 70.6306 31.0447 70.6699 30.57C70.7299 26.91 70.6899 23.21 70.6899 19.51Z" fill="white"/>
<path d="M8.83984 55.69L14.5098 49.71L20.0998 55.52" stroke="white" stroke-width="3" stroke-miterlimit="10"/>
<path d="M20.0998 32.28L14.4198 38.26L8.83984 32.45" stroke="white" stroke-width="3" stroke-miterlimit="10"/>
<path d="M14.4199 29.4199V58.3499" stroke="white" stroke-width="3" stroke-miterlimit="10"/>
<path d="M26.2698 49.52L20.2998 43.84L26.0998 38.26" stroke="white" stroke-width="3" stroke-miterlimit="10"/>
<path d="M2.85986 38.26L8.83986 43.93L3.02986 49.52" stroke="white" stroke-width="3" stroke-miterlimit="10"/>
<path d="M0 43.9299H28.94" stroke="white" stroke-width="3" stroke-miterlimit="10"/>
<path d="M21.4102 26.76L27.0802 20.78L32.6702 26.58" stroke="white" stroke-width="3" stroke-miterlimit="10"/>
<path d="M32.6702 3.34009L26.9902 9.32009L21.4102 3.52009" stroke="white" stroke-width="3" stroke-miterlimit="10"/>
<path d="M26.9902 0.47998V29.42" stroke="white" stroke-width="3" stroke-miterlimit="10"/>
<path d="M38.8399 20.5801L32.8599 14.9101L38.6699 9.32007" stroke="white" stroke-width="3" stroke-miterlimit="10"/>
<path d="M15.4302 9.32007L21.4102 14.9901L15.6002 20.5801" stroke="white" stroke-width="3" stroke-miterlimit="10"/>
<path d="M12.5698 14.99H41.5098" stroke="white" stroke-width="3" stroke-miterlimit="10"/>
<path d="M70.6899 19.51V8.09997C70.7467 7.20322 70.6176 6.30441 70.3105 5.45995C70.0035 4.61548 69.5253 3.84359 68.9058 3.19272C68.2863 2.54184 67.539 2.02604 66.7107 1.67768C65.8825 1.32931 64.9911 1.15591 64.0927 1.16835C63.1942 1.18079 62.308 1.3788 61.4897 1.74997C60.6714 2.12113 59.9387 2.65743 59.3375 3.3252C58.7362 3.99298 58.2795 4.77781 57.996 5.63046C57.7125 6.4831 57.6083 7.38514 57.6899 8.27997C57.6899 15.72 57.6899 23.15 57.6899 30.58C57.7296 31.113 57.6125 31.6459 57.3531 32.1132C57.0937 32.5805 56.7032 32.9618 56.2299 33.21C53.3103 35.1021 51.1611 37.9734 50.1686 41.3079C49.1761 44.6425 49.4052 48.2217 50.8149 51.4024C52.2245 54.5832 54.7223 57.157 57.8593 58.6614C60.9964 60.1657 64.5671 60.5021 67.9299 59.61C73.3399 58.08 76.9299 54.61 78.2499 49.45C79.8599 43.23 76.9999 36.89 71.8599 33C71.4608 32.74 71.1394 32.3768 70.9299 31.949C70.7204 31.5212 70.6306 31.0447 70.6699 30.57C70.7299 26.91 70.6899 23.21 70.6899 19.51Z" fill="white" stroke="#5063F0" stroke-width="3" stroke-miterlimit="10"/>
<path d="M63.8298 10.53V35.94C63.8298 37.31 63.5498 37.66 62.3398 37.77C59.8198 38 57.0998 40 56.7598 44.51" fill="white"/>
<path d="M63.8298 10.53V35.94C63.8298 37.31 63.5498 37.66 62.3398 37.77C59.8198 38 57.0998 40 56.7598 44.51" stroke="#5063F0" stroke-width="3" stroke-miterlimit="10" stroke-linecap="round"/>
<path d="M63.6802 51.4001C65.4625 51.3422 67.1555 50.6063 68.4136 49.3426C69.6717 48.0789 70.4002 46.3826 70.4502 44.6001" fill="white"/>
<path d="M63.6802 51.4001C65.4625 51.3422 67.1555 50.6063 68.4136 49.3426C69.6717 48.0789 70.4002 46.3826 70.4502 44.6001" stroke="#5063F0" stroke-width="3" stroke-miterlimit="10" stroke-linecap="round"/>
</g>
<defs>
<clipPath id="clip0_3428_1148">
<rect width="80.19" height="61.64" fill="white"/>
</clipPath>
</defs>
</svg>
