<svg width="96" height="98" viewBox="0 0 96 98" fill="none" xmlns="http://www.w3.org/2000/svg">
<g clip-path="url(#clip0_3430_1354)">
<path d="M22.8998 2.59959C10.0998 4.09959 0.899819 15.4996 2.09982 28.3996C3.39982 41.1996 14.7998 50.3996 27.4998 49.0996C30.4998 48.6996 33.1998 47.8996 35.9998 46.3996C34.3998 45.2996 32.9998 44.0996 31.6998 42.6996C27.1998 38.4996 24.0998 33.0996 23.0998 26.9996C21.9998 19.5996 23.9998 12.4996 26.2998 7.59959C27.0998 5.99959 27.8998 4.19959 28.8998 2.69959C26.9998 2.29959 24.8998 2.29959 22.8998 2.59959Z" fill="#EAD88C"/>
<path d="M74.6996 59.8998H26.1996C23.8996 59.7998 21.8996 58.4998 20.6996 56.4998C18.9996 53.7998 18.7996 50.3998 20.2996 47.4998C21.9996 44.3998 25.3996 42.4998 28.9996 42.7998C30.4996 42.8998 30.7996 42.2998 30.8996 41.0998C32.3996 31.5998 39.7996 24.0998 49.2996 22.4998H49.3996C54.5996 21.7998 59.7996 22.8998 64.1996 25.6998C64.5996 25.9998 65.0996 26.2998 65.4996 26.5998C67.8996 28.4998 69.9996 30.7998 71.4996 33.4998L72.1996 34.6998" fill="white"/>
<path d="M51.5996 47.4997C52.1996 43.3997 55.1996 40.1997 59.1996 39.2997C59.7996 39.1997 60.4996 39.1997 61.0996 39.1997C63.5996 39.1997 65.9996 40.0997 67.7996 41.7997C69.0996 42.9997 69.9996 44.5997 70.4996 46.2997" fill="white"/>
<path d="M64.6997 39.7997C67.4997 35.3997 73.9997 33.7997 79.0997 34.8997C83.7997 35.7997 87.3997 39.3997 88.3997 43.9997C89.0997 46.8997 89.2997 47.9997 91.4997 49.4997C94.5997 51.6997 94.3997 56.5997 91.8997 58.8997C91.1997 59.4997 90.3997 59.7997 89.4997 59.7997H72.6997" fill="white"/>
<path d="M63.7998 95.9999L66.1998 93.3999L68.5998 95.8999" stroke="white" stroke-width="1.5" stroke-miterlimit="10"/>
<path d="M68.5998 86.0996L66.1998 88.5996L63.7998 86.0996" stroke="white" stroke-width="1.5" stroke-miterlimit="10"/>
<path d="M66.1997 84.8999V97.0999" stroke="white" stroke-width="1.5" stroke-miterlimit="10"/>
<path d="M71.1997 93.3996L68.6997 90.9996L71.0997 88.5996" stroke="white" stroke-width="1.5" stroke-miterlimit="10"/>
<path d="M61.2998 88.5996L63.7998 90.9996L61.3998 93.3996" stroke="white" stroke-width="1.5" stroke-miterlimit="10"/>
<path d="M60.0996 91H72.2996" stroke="white" stroke-width="1.5" stroke-miterlimit="10"/>
<path d="M44.8999 95.9999L47.2999 93.3999L49.6999 95.8999" stroke="white" stroke-width="1.5" stroke-miterlimit="10"/>
<path d="M49.6999 86.0996L47.2999 88.5996L44.8999 86.0996" stroke="white" stroke-width="1.5" stroke-miterlimit="10"/>
<path d="M47.2998 84.8999V97.0999" stroke="white" stroke-width="1.5" stroke-miterlimit="10"/>
<path d="M52.2997 93.3996L49.6997 90.9996L52.1997 88.5996" stroke="white" stroke-width="1.5" stroke-miterlimit="10"/>
<path d="M42.3999 88.5996L44.8999 90.9996L42.3999 93.3996" stroke="white" stroke-width="1.5" stroke-miterlimit="10"/>
<path d="M41.1997 91H53.3997" stroke="white" stroke-width="1.5" stroke-miterlimit="10"/>
<path d="M79.5996 80.0996L82.8996 76.5996L86.1996 79.8996" stroke="white" stroke-width="2" stroke-miterlimit="10"/>
<path d="M86.1996 66.3999L82.8996 69.8999L79.5996 66.4999" stroke="white" stroke-width="2" stroke-miterlimit="10"/>
<path d="M82.8999 64.6997V81.5997" stroke="white" stroke-width="2" stroke-miterlimit="10"/>
<path d="M89.7998 76.3999L86.2998 73.0999L89.6998 69.8999" stroke="white" stroke-width="2" stroke-miterlimit="10"/>
<path d="M76.0996 69.8999L79.5996 73.1999L76.1996 76.3999" stroke="white" stroke-width="2" stroke-miterlimit="10"/>
<path d="M74.5 73.1997H91.3" stroke="white" stroke-width="2" stroke-miterlimit="10"/>
<path d="M53.5996 80.0996L56.8996 76.5996L60.0996 79.8996" stroke="white" stroke-width="2" stroke-miterlimit="10"/>
<path d="M60.0996 66.3999L56.7996 69.8999L53.5996 66.4999" stroke="white" stroke-width="2" stroke-miterlimit="10"/>
<path d="M56.7998 64.6997V81.5997" stroke="white" stroke-width="2" stroke-miterlimit="10"/>
<path d="M63.6998 76.3999L60.2998 73.0999L63.5998 69.8999" stroke="white" stroke-width="2" stroke-miterlimit="10"/>
<path d="M50.0996 69.8999L53.5996 73.1999L50.1996 76.3999" stroke="white" stroke-width="2" stroke-miterlimit="10"/>
<path d="M48.3999 73.1997H65.2999" stroke="white" stroke-width="2" stroke-miterlimit="10"/>
<path d="M27.5 80.0996L30.8 76.5996L34.1 79.8996" stroke="white" stroke-width="2" stroke-miterlimit="10"/>
<path d="M34.1 66.3999L30.8 69.8999L27.5 66.4999" stroke="white" stroke-width="2" stroke-miterlimit="10"/>
<path d="M30.7998 64.6997V81.5997" stroke="white" stroke-width="2" stroke-miterlimit="10"/>
<path d="M37.6997 76.3999L34.1997 73.0999L37.5997 69.8999" stroke="white" stroke-width="2" stroke-miterlimit="10"/>
<path d="M24.0996 69.8999L27.4996 73.1999L24.0996 76.3999" stroke="white" stroke-width="2" stroke-miterlimit="10"/>
<path d="M22.3999 73.1997H39.1999" stroke="white" stroke-width="2" stroke-miterlimit="10"/>
<path d="M87 59.8997H25.2996C22.9996 59.7997 20.8996 58.4997 19.6996 56.4997C17.9996 53.7997 17.7996 50.2997 19.2996 47.4997C21.0996 44.2997 24.4996 42.4997 28.0996 42.7997C29.5996 42.8997 29.8996 42.2997 30.0996 41.0997C31.5996 31.4997 39.0996 23.9997 48.6996 22.3997H48.7996C53.9996 21.6997 59.3996 22.7997 63.8996 25.5997C64.2996 25.8997 64.7996 26.1997 65.1996 26.4997C67.6996 28.3997 69.7996 30.6997 71.2996 33.3997L71.9996 34.5997" stroke="white" stroke-width="4" stroke-miterlimit="10"/>
<path d="M51.0996 47.4996C51.6996 43.3996 54.7996 40.0996 58.8996 39.2996C59.4996 39.1996 60.1996 39.0996 60.7996 39.1996C63.2996 39.1996 65.6996 40.0996 67.5996 41.7996C68.8996 42.9996 69.7996 44.5996 70.2996 46.2996" stroke="white" stroke-width="4" stroke-miterlimit="10"/>
<path d="M64.2998 39.7997C67.1998 35.3997 73.6998 33.7997 78.8998 34.8997C83.5998 35.7997 87.2998 39.3997 88.3998 44.0997C89.0998 46.9997 89.2998 48.0997 91.4998 49.5997C94.6998 51.7997 94.4998 56.6997 91.8998 58.9997C91.1998 59.5997 90.2998 59.8997 89.3998 59.8997H86.1998" stroke="white" stroke-width="4" stroke-miterlimit="10"/>
</g>
<defs>
<clipPath id="clip0_3430_1354">
<rect width="95.9" height="97.1" fill="white"/>
</clipPath>
</defs>
</svg>
