<svg width="102" height="108" viewBox="0 0 102 108" fill="none" xmlns="http://www.w3.org/2000/svg">
<g clip-path="url(#clip0_3430_1307)">
<path d="M36.0601 14.1201C31.7089 14.1201 27.4554 15.4104 23.8375 17.8278C20.2196 20.2452 17.3998 23.6811 15.7347 27.7011C14.0696 31.7211 13.6339 36.1445 14.4828 40.4121C15.3317 44.6797 17.427 48.5997 20.5037 51.6765C23.5805 54.7532 27.5005 56.8485 31.7681 57.6974C36.0357 58.5463 40.4591 58.1106 44.4791 56.4455C48.4991 54.7803 51.935 51.9605 54.3524 48.3427C56.7698 44.7248 58.0601 40.4713 58.0601 36.1201C58.0601 30.2854 55.7422 24.6896 51.6164 20.5638C47.4906 16.438 41.8948 14.1201 36.0601 14.1201V14.1201Z" fill="#F5B952"/>
<path d="M80.7998 68.4702H34.0798C32.9951 68.4052 31.9433 68.0725 31.0185 67.5019C30.0936 66.9313 29.3245 66.1405 28.7798 65.2002C27.9125 63.8455 27.4419 62.2749 27.4216 60.6665C27.4012 59.0581 27.8319 57.4761 28.6647 56.0999C29.4974 54.7237 30.6991 53.6083 32.1334 52.8802C33.5677 52.152 35.1774 51.8403 36.7798 51.9802C38.1898 52.0502 38.4798 51.5302 38.6598 50.3402C39.3474 45.8683 41.4219 41.7252 44.5905 38.4956C47.7591 35.266 51.8619 33.1129 56.3198 32.3402H56.4298C61.4107 31.6448 66.4769 32.736 70.7298 35.4202C71.1498 35.6802 71.5698 35.9702 71.9898 36.2902C74.3463 38.1001 76.3152 40.3649 77.7798 42.9502L78.4598 44.1102" fill="white"/>
<path d="M58.54 56.4998C58.7986 54.5817 59.6466 52.7913 60.9669 51.3761C62.2871 49.9608 64.0145 48.9907 65.91 48.5998C66.5119 48.5046 67.1208 48.4611 67.73 48.4698C70.1238 48.4612 72.4306 49.366 74.18 50.9998C75.4171 52.1732 76.3006 53.6698 76.73 55.3198" fill="white"/>
<path d="M71.1602 49.0502C73.8602 44.8202 80.0802 43.2602 85.0402 44.3002C87.2423 44.7204 89.2712 45.7817 90.8724 47.3508C92.4735 48.9199 93.5756 50.927 94.0402 53.1202C94.6702 55.9002 94.8702 56.9602 96.9902 58.4502C99.9902 60.5702 99.7902 65.3102 97.3502 67.5502C96.6962 68.1106 95.8709 68.4316 95.0102 68.4602H78.8602" fill="white"/>
<path d="M71.2998 106.2L73.6998 103.67L76.0698 106.13" stroke="#FBFDFD" stroke-width="1.5" stroke-miterlimit="10"/>
<path d="M76.0698 96.29L73.6698 98.82L71.2998 96.36" stroke="#FBFDFD" stroke-width="1.5" stroke-miterlimit="10"/>
<path d="M73.6699 95.0801V107.33" stroke="#FBFDFD" stroke-width="1.5" stroke-miterlimit="10"/>
<path d="M78.6799 103.59L76.1499 101.19L78.6099 98.8198" stroke="#FBFDFD" stroke-width="1.5" stroke-miterlimit="10"/>
<path d="M68.77 98.8198L71.3 101.22L68.84 103.59" stroke="#FBFDFD" stroke-width="1.5" stroke-miterlimit="10"/>
<path d="M67.5601 101.22H79.8101" stroke="#FBFDFD" stroke-width="1.5" stroke-miterlimit="10"/>
<path d="M52.3901 106.2L54.8001 103.67L57.1601 106.13" stroke="#FBFDFD" stroke-width="1.5" stroke-miterlimit="10"/>
<path d="M57.1601 96.29L54.7601 98.82L52.3901 96.36" stroke="#FBFDFD" stroke-width="1.5" stroke-miterlimit="10"/>
<path d="M54.7598 95.0801V107.33" stroke="#FBFDFD" stroke-width="1.5" stroke-miterlimit="10"/>
<path d="M59.7702 103.59L57.2402 101.19L59.7002 98.8198" stroke="#FBFDFD" stroke-width="1.5" stroke-miterlimit="10"/>
<path d="M49.8599 98.8198L52.3899 101.22L49.9399 103.59" stroke="#FBFDFD" stroke-width="1.5" stroke-miterlimit="10"/>
<path d="M48.6499 101.22H60.8999" stroke="#FBFDFD" stroke-width="1.5" stroke-miterlimit="10"/>
<path d="M87.1099 90.27L90.4199 86.79L93.6799 90.17" stroke="#FBFDFD" stroke-width="2" stroke-miterlimit="10"/>
<path d="M93.6799 76.6201L90.3699 80.1101L87.1099 76.7301" stroke="#FBFDFD" stroke-width="2" stroke-miterlimit="10"/>
<path d="M90.3701 74.96V91.83" stroke="#FBFDFD" stroke-width="2" stroke-miterlimit="10"/>
<path d="M97.28 86.6699L93.79 83.3699L97.18 80.1099" stroke="#FBFDFD" stroke-width="2" stroke-miterlimit="10"/>
<path d="M83.6299 80.1099L87.1099 83.4199L83.7299 86.6699" stroke="#FBFDFD" stroke-width="2" stroke-miterlimit="10"/>
<path d="M81.96 83.4199H98.83" stroke="#FBFDFD" stroke-width="2" stroke-miterlimit="10"/>
<path d="M61.0698 90.27L64.3798 86.79L67.6398 90.17" stroke="#FBFDFD" stroke-width="2" stroke-miterlimit="10"/>
<path d="M67.6398 76.6201L64.3298 80.1101L61.0698 76.7301" stroke="#FBFDFD" stroke-width="2" stroke-miterlimit="10"/>
<path d="M64.3301 74.96V91.83" stroke="#FBFDFD" stroke-width="2" stroke-miterlimit="10"/>
<path d="M71.24 86.6699L67.75 83.3699L71.13 80.1099" stroke="#FBFDFD" stroke-width="2" stroke-miterlimit="10"/>
<path d="M57.5898 80.1099L61.0698 83.4199L57.6898 86.6699" stroke="#FBFDFD" stroke-width="2" stroke-miterlimit="10"/>
<path d="M55.9199 83.4199H72.7899" stroke="#FBFDFD" stroke-width="2" stroke-miterlimit="10"/>
<path d="M35.0298 90.27L38.3398 86.79L41.5898 90.17" stroke="#FBFDFD" stroke-width="2" stroke-miterlimit="10"/>
<path d="M41.5898 76.6201L38.2898 80.1101L35.0298 76.7301" stroke="#FBFDFD" stroke-width="2" stroke-miterlimit="10"/>
<path d="M38.29 74.96V91.83" stroke="#FBFDFD" stroke-width="2" stroke-miterlimit="10"/>
<path d="M45.19 86.6699L41.71 83.3699L45.09 80.1099" stroke="#FBFDFD" stroke-width="2" stroke-miterlimit="10"/>
<path d="M31.54 80.1099L35.03 83.4199L31.64 86.6699" stroke="#FBFDFD" stroke-width="2" stroke-miterlimit="10"/>
<path d="M29.8799 83.4199H46.7499" stroke="#FBFDFD" stroke-width="2" stroke-miterlimit="10"/>
<path d="M35.9702 14.01V2" stroke="#F5B952" stroke-width="4" stroke-miterlimit="10" stroke-linecap="square"/>
<path d="M14.01 36.2002H2" stroke="#F5B952" stroke-width="4" stroke-miterlimit="10" stroke-linecap="square"/>
<path d="M20.3999 20.5601L11.8999 12.0601" stroke="#F5B952" stroke-width="4" stroke-miterlimit="10" stroke-linecap="square"/>
<path d="M51.6099 20.3999L60.0999 11.8999" stroke="#F5B952" stroke-width="4" stroke-miterlimit="10" stroke-linecap="square"/>
<path d="M20.5601 51.77L12.0601 60.26" stroke="#F5B952" stroke-width="4" stroke-miterlimit="10" stroke-linecap="square"/>
<path d="M92.5 68.6299H34.8201C33.7497 68.5723 32.7099 68.2521 31.7926 67.6975C30.8752 67.1429 30.1085 66.371 29.5601 65.4499C28.7582 64.1991 28.3023 62.758 28.2391 61.2735C28.1758 59.789 28.5075 58.3144 29.2001 56.9999C30.0146 55.5377 31.2339 54.3419 32.7116 53.556C34.1893 52.7701 35.8625 52.4277 37.5301 52.5699C38.9301 52.6399 39.2201 52.1299 39.3901 50.9699C40.095 46.5698 42.1646 42.5025 45.3066 39.3425C48.4487 36.1826 52.5042 34.0898 56.9001 33.3599H57.0101C61.942 32.6775 66.9573 33.7386 71.1901 36.3599C71.6001 36.6199 72.0201 36.8999 72.4301 37.1999C74.7652 38.961 76.7209 41.1752 78.1801 43.7099L78.8501 44.8399" stroke="white" stroke-width="4" stroke-miterlimit="10"/>
<path d="M59.0601 56.9998C59.3274 55.1149 60.1748 53.3599 61.4847 51.9783C62.7946 50.5968 64.502 49.6571 66.3701 49.2898C66.9682 49.1912 67.5738 49.1444 68.1801 49.1498C70.5437 49.1469 72.8229 50.0279 74.5701 51.6198C75.7827 52.7532 76.6583 54.1999 77.1001 55.7998" stroke="white" stroke-width="4" stroke-miterlimit="10"/>
<path d="M71.5698 49.67C74.2498 45.54 80.4098 44 85.3398 45C87.5092 45.3987 89.5124 46.4296 91.0976 47.9633C92.6829 49.497 93.7796 51.465 94.2498 53.62C94.8798 56.33 95.0798 57.37 97.1798 58.82C100.18 60.89 99.9598 65.52 97.5398 67.71C96.8869 68.2562 96.0706 68.5694 95.2198 68.6H92.2198" stroke="white" stroke-width="4" stroke-miterlimit="10"/>
</g>
<defs>
<clipPath id="clip0_3430_1307">
<rect width="101.39" height="107.33" fill="white"/>
</clipPath>
</defs>
</svg>
