<svg width="80" height="81" viewBox="0 0 80 81" fill="none" xmlns="http://www.w3.org/2000/svg">
<g clip-path="url(#clip0_3428_1106)">
<path d="M58.6198 39.7901H9.70981C8.57523 39.7236 7.47474 39.3774 6.50638 38.7824C5.53803 38.1874 4.7319 37.3622 4.15981 36.3801C3.23995 34.9595 2.73928 33.3084 2.71526 31.6161C2.69124 29.9239 3.14484 28.2592 4.024 26.8131C4.90315 25.367 6.17224 24.1981 7.6856 23.4405C9.19896 22.6829 10.8953 22.3674 12.5798 22.5301C14.0498 22.6101 14.3598 22.0601 14.5798 20.8201C15.3012 16.1528 17.4653 11.8284 20.7687 8.45325C24.0721 5.07812 28.3491 2.82158 32.9998 2.00011H33.1098C38.3333 1.26384 43.6487 2.40487 48.1098 5.22011C48.5619 5.50065 48.9991 5.80439 49.4198 6.13011C51.8951 8.02956 53.96 10.4108 55.4898 13.1301L56.1998 14.3401" fill="white"/>
<path d="M35.3101 27.27C35.578 25.2651 36.4617 23.3927 37.8392 21.9114C39.2166 20.4301 41.0199 19.4128 43.0001 19C43.6313 18.8966 44.2705 18.8498 44.9101 18.86C47.415 18.8539 49.8284 19.8013 51.6601 21.51C52.961 22.7257 53.8962 24.2809 54.3601 26" fill="white"/>
<path d="M48.52 19.4699C51.35 15.0399 57.86 13.4099 63.06 14.4699C65.3645 14.9075 67.4879 16.0176 69.1625 17.6602C70.8371 19.3027 71.988 21.4043 72.47 23.6999C73.14 26.6099 73.35 27.6999 75.56 29.2799C78.72 31.4999 78.5 36.4599 75.94 38.7999C75.2666 39.405 74.4044 39.7583 73.5 39.7999H56.58" fill="white"/>
<path d="M48.1597 79.41L50.6597 76.78L53.1097 79.34" stroke="white" stroke-width="1.5" stroke-miterlimit="10"/>
<path d="M53.1097 69.1101L50.6197 71.7401L48.1597 69.1901" stroke="white" stroke-width="1.5" stroke-miterlimit="10"/>
<path d="M50.6201 67.8601V80.5801" stroke="white" stroke-width="1.5" stroke-miterlimit="10"/>
<path d="M55.8297 76.7L53.1997 74.2L55.7497 71.74" stroke="white" stroke-width="1.5" stroke-miterlimit="10"/>
<path d="M45.5298 71.74L48.1598 74.24L45.6098 76.7" stroke="white" stroke-width="1.5" stroke-miterlimit="10"/>
<path d="M44.27 74.24H57" stroke="white" stroke-width="1.5" stroke-miterlimit="10"/>
<path d="M28.5098 79.41L30.9998 76.78L33.4598 79.34" stroke="white" stroke-width="1.5" stroke-miterlimit="10"/>
<path d="M33.4598 69.1101L30.9698 71.7401L28.5098 69.1901" stroke="white" stroke-width="1.5" stroke-miterlimit="10"/>
<path d="M30.9697 67.8601V80.5801" stroke="white" stroke-width="1.5" stroke-miterlimit="10"/>
<path d="M36.1798 76.7L33.5498 74.2L36.0998 71.74" stroke="white" stroke-width="1.5" stroke-miterlimit="10"/>
<path d="M25.8799 71.74L28.5099 74.24L25.9599 76.7" stroke="white" stroke-width="1.5" stroke-miterlimit="10"/>
<path d="M24.6201 74.24H37.3501" stroke="white" stroke-width="1.5" stroke-miterlimit="10"/>
<path d="M64.5898 62.86L68.0298 59.24L71.4099 62.76" stroke="white" stroke-width="2" stroke-miterlimit="10"/>
<path d="M71.4099 48.6799L67.9799 52.2999L64.5898 48.7799" stroke="white" stroke-width="2" stroke-miterlimit="10"/>
<path d="M67.98 46.9402V64.4702" stroke="white" stroke-width="2" stroke-miterlimit="10"/>
<path d="M75.1598 59.12L71.5298 55.68L75.0498 52.3" stroke="white" stroke-width="2" stroke-miterlimit="10"/>
<path d="M60.9697 52.3L64.5897 55.7401L61.0797 59.12" stroke="white" stroke-width="2" stroke-miterlimit="10"/>
<path d="M59.2397 55.74H76.7697" stroke="white" stroke-width="2" stroke-miterlimit="10"/>
<path d="M37.5298 62.86L40.9698 59.24L44.3498 62.76" stroke="white" stroke-width="2" stroke-miterlimit="10"/>
<path d="M44.3498 48.6799L40.9098 52.2999L37.5298 48.7799" stroke="white" stroke-width="2" stroke-miterlimit="10"/>
<path d="M40.9097 46.9402V64.4702" stroke="white" stroke-width="2" stroke-miterlimit="10"/>
<path d="M48.0897 59.12L44.4697 55.68L47.9797 52.3" stroke="white" stroke-width="2" stroke-miterlimit="10"/>
<path d="M33.9097 52.3L37.5297 55.7401L34.0097 59.12" stroke="white" stroke-width="2" stroke-miterlimit="10"/>
<path d="M32.1699 55.74H49.6999" stroke="white" stroke-width="2" stroke-miterlimit="10"/>
<path d="M10.46 62.86L13.9 59.24L17.29 62.76" stroke="white" stroke-width="2" stroke-miterlimit="10"/>
<path d="M17.29 48.6799L13.85 52.2999L10.46 48.7799" stroke="white" stroke-width="2" stroke-miterlimit="10"/>
<path d="M13.8501 46.9402V64.4702" stroke="white" stroke-width="2" stroke-miterlimit="10"/>
<path d="M21.0299 59.12L17.3999 55.68L20.9199 52.3" stroke="white" stroke-width="2" stroke-miterlimit="10"/>
<path d="M6.83984 52.3L10.4598 55.7401L6.94984 59.12" stroke="white" stroke-width="2" stroke-miterlimit="10"/>
<path d="M5.10986 55.74H22.6399" stroke="white" stroke-width="2" stroke-miterlimit="10"/>
<path d="M61.8076 39.7199H8.99991C7.86355 39.6535 6.76053 39.311 5.78646 38.722C4.81238 38.133 3.99663 37.3154 3.40991 36.3399C2.56145 35.0054 2.07961 33.4709 2.0129 31.8909C1.94618 30.3109 2.29696 28.7412 3.02991 27.3399C3.89708 25.7857 5.19423 24.5146 6.76576 23.6792C8.3373 22.8437 10.1165 22.4794 11.8899 22.6299C13.3699 22.7099 13.6799 22.1699 13.8899 20.9399C14.641 16.2709 16.8379 11.9551 20.1711 8.60038C23.5042 5.24567 27.8058 3.02108 32.4699 2.23992H32.5899C37.8304 1.51045 43.161 2.63529 47.6599 5.41992C48.0999 5.69326 48.5399 5.99326 48.9799 6.31992C51.4574 8.19229 53.5349 10.5418 55.0899 13.2299L55.7999 14.4299" fill="white"/>
<path d="M61.8076 39.7199H8.99991C7.86355 39.6535 6.76053 39.311 5.78646 38.722C4.81238 38.133 3.99663 37.3154 3.40991 36.3399C2.56145 35.0054 2.07961 33.4709 2.0129 31.8909C1.94618 30.3109 2.29696 28.7412 3.02991 27.3399C3.89708 25.7857 5.19423 24.5146 6.76576 23.6792C8.3373 22.8437 10.1165 22.4794 11.8899 22.6299C13.3699 22.7099 13.6799 22.1699 13.8899 20.9399C14.641 16.2709 16.8379 11.9551 20.1711 8.60038C23.5042 5.24567 27.8058 3.02108 32.4699 2.23992H32.5899C37.8304 1.51045 43.161 2.63529 47.6599 5.41992C48.0999 5.69326 48.5399 5.99326 48.9799 6.31992C51.4574 8.19229 53.5349 10.5418 55.0899 13.2299L55.7999 14.4299" stroke="white" stroke-width="4" stroke-miterlimit="10"/>
<path d="M34.77 27.3099C35.0508 25.3045 35.9504 23.4367 37.3432 21.9668C38.736 20.497 40.5527 19.4982 42.54 19.1099C43.1755 19.0162 43.818 18.9794 44.46 18.9999C46.9712 18.9943 49.3935 19.9289 51.25 21.6199C52.542 22.8412 53.4727 24.3946 53.94 26.1099" fill="white"/>
<path d="M34.77 27.3099C35.0508 25.3045 35.9504 23.4367 37.3432 21.9668C38.736 20.497 40.5527 19.4982 42.54 19.1099C43.1755 19.0162 43.818 18.9794 44.46 18.9999C46.9712 18.9943 49.3935 19.9289 51.25 21.6199C52.542 22.8412 53.4727 24.3946 53.94 26.1099" stroke="white" stroke-width="4" stroke-miterlimit="10"/>
<path d="M48.0601 19.5699C50.9101 15.1899 57.4601 13.5699 62.6901 14.6499C64.9965 15.0675 67.1274 16.1597 68.813 17.7884C70.4987 19.4171 71.6635 21.5092 72.1601 23.7999C72.8301 26.6899 73.0401 27.7999 75.2701 29.3299C78.4501 31.5299 78.2701 36.4499 75.6601 38.7699C74.9684 39.3577 74.0973 39.6927 73.1901 39.7199H70.0001" fill="white"/>
<path d="M48.0601 19.5699C50.9101 15.1899 57.4601 13.5699 62.6901 14.6499C64.9965 15.0675 67.1274 16.1597 68.813 17.7884C70.4987 19.4171 71.6635 21.5092 72.1601 23.7999C72.8301 26.6899 73.0401 27.7999 75.2701 29.3299C78.4501 31.5299 78.2701 36.4499 75.6601 38.7699C74.9684 39.3577 74.0973 39.6927 73.1901 39.7199H70.0001" stroke="white" stroke-width="4" stroke-miterlimit="10"/>
<path d="M61.6699 39.72H70.141" stroke="white" stroke-width="4" stroke-miterlimit="10"/>
</g>
<defs>
<clipPath id="clip0_3428_1106">
<rect width="79.62" height="80.58" fill="white"/>
</clipPath>
</defs>
</svg>
