<svg width="102" height="101" viewBox="0 0 102 101" fill="none" xmlns="http://www.w3.org/2000/svg">
<g clip-path="url(#clip0_3430_1425)">
<path d="M59.2498 98.4299C61.1698 96.4299 67.0798 90.0099 67.0798 90.0099C68.4398 88.5399 69.7498 87.1199 71.0798 85.7099C71.3141 85.5319 71.4806 85.2792 71.5515 84.9936C71.6224 84.708 71.5936 84.4068 71.4698 84.1399C71.3341 83.8798 71.1168 83.6715 70.8512 83.5468C70.5857 83.4222 70.2866 83.3881 69.9998 83.4499C69.5698 83.4499 69.1398 83.5199 68.6198 83.5599C68.7598 83.2799 68.8498 83.0799 68.9498 82.8899L71.5398 77.8899C72.1198 76.7599 71.5998 75.8899 70.3598 75.8899C67.3598 75.8899 64.3598 75.8899 61.4098 75.8899C61.1091 75.8668 60.8088 75.9408 60.5532 76.101C60.2977 76.2612 60.1002 76.4991 59.9898 76.7799C58.3298 80.1899 56.6598 83.6099 54.9898 87.0199C54.8385 87.2168 54.7497 87.4546 54.7351 87.7025C54.7204 87.9504 54.7806 88.1971 54.9077 88.4104C55.0349 88.6238 55.2232 88.794 55.4482 88.8991C55.6732 89.0042 55.9246 89.0393 56.1698 88.9999H59.7698C59.5798 89.6099 59.4198 90.1699 59.2098 90.7199L58.1098 93.9999C57.7098 95.2199 57.2898 96.3399 57.0098 97.4799C56.9775 97.6879 56.9912 97.9005 57.05 98.1026C57.1087 98.3047 57.2111 98.4916 57.3498 98.6499C57.7047 98.8804 58.1304 98.9762 58.5498 98.9199C58.7998 98.9399 59.0498 98.6499 59.2498 98.4299Z" fill="#F5B952"/>
<path d="M35.7402 14.5801C31.3891 14.5801 27.1356 15.8704 23.5177 18.2877C19.8998 20.7051 17.08 24.1411 15.4149 28.161C13.7498 32.181 13.3141 36.6045 14.163 40.8721C15.0118 45.1396 17.1071 49.0597 20.1839 52.1364C23.2607 55.2132 27.1807 57.3085 31.4483 58.1574C35.7158 59.0062 40.1393 58.5706 44.1593 56.9054C48.1793 55.2403 51.6152 52.4205 54.0326 48.8026C56.45 45.1847 57.7402 40.9313 57.7402 36.5801C57.7402 30.7453 55.4224 25.1495 51.2966 21.0237C47.1708 16.8979 41.575 14.5801 35.7402 14.5801V14.5801Z" fill="#F5B952"/>
<path d="M81.3901 69.14H35.0001C33.9232 69.0742 32.879 68.7441 31.9599 68.1791C31.0408 67.614 30.2749 66.8312 29.7301 65.9C28.8629 64.5515 28.3928 62.9861 28.3737 61.383C28.3545 59.7798 28.787 58.2037 29.6216 56.8348C30.4563 55.466 31.6594 54.3597 33.0934 53.6426C34.5273 52.9255 36.1342 52.6266 37.7301 52.78C39.1301 52.85 39.4201 52.33 39.5901 51.15C40.2758 46.7141 42.3365 42.6054 45.4815 39.4029C48.6266 36.2005 52.6974 34.0658 57.1201 33.3H57.2301C62.1767 32.5983 67.2115 33.6833 71.4301 36.36C71.8501 36.61 72.2601 36.9 72.6801 37.21C75.0183 39.0079 76.9733 41.2553 78.4301 43.82L79.1001 45" fill="white"/>
<path d="M59.29 57.27C59.5443 55.3646 60.3858 53.5857 61.6977 52.1807C63.0095 50.7756 64.7265 49.8142 66.61 49.43C67.2082 49.3313 67.8138 49.2845 68.42 49.29C70.7936 49.2895 73.0796 50.1861 74.82 51.8C76.0471 52.97 76.9233 54.4591 77.35 56.1" fill="white"/>
<path d="M71.8101 49.87C74.5001 45.67 80.6701 44.13 85.6001 45.16C87.7847 45.5747 89.7977 46.627 91.3851 48.1841C92.9726 49.7413 94.0634 51.7337 94.5201 53.91C95.1501 56.67 95.3501 57.72 97.4501 59.2C100.45 61.3 100.23 66 97.8101 68.2C97.1605 68.7532 96.3428 69.0704 95.4901 69.1H79.4901" fill="white"/>
<path d="M86.22 89.6201L80.02 95.4901" stroke="#5063F0" stroke-width="3" stroke-miterlimit="10" stroke-linecap="round"/>
<path d="M44.0101 89.6201L37.8101 95.4901" stroke="#5063F0" stroke-width="3" stroke-miterlimit="10" stroke-linecap="round"/>
<path d="M86.22 76.8301L80.02 82.7101" stroke="#5063F0" stroke-width="3" stroke-miterlimit="10" stroke-linecap="round"/>
<path d="M44.0101 76.8301L37.8101 82.7101" stroke="#5063F0" stroke-width="3" stroke-miterlimit="10" stroke-linecap="round"/>
<path d="M35.9702 14.01V2" stroke="#F5B952" stroke-width="4" stroke-miterlimit="10" stroke-linecap="square"/>
<path d="M14.01 36.2002H2" stroke="#F5B952" stroke-width="4" stroke-miterlimit="10" stroke-linecap="square"/>
<path d="M20.3999 20.5601L11.8999 12.0601" stroke="#F5B952" stroke-width="4" stroke-miterlimit="10" stroke-linecap="square"/>
<path d="M51.6099 20.3999L60.0999 11.8999" stroke="#F5B952" stroke-width="4" stroke-miterlimit="10" stroke-linecap="square"/>
<path d="M20.5601 51.77L12.0601 60.26" stroke="#F5B952" stroke-width="4" stroke-miterlimit="10" stroke-linecap="square"/>
<path d="M93 68.6299H34.8201C33.7497 68.5723 32.7099 68.2521 31.7926 67.6975C30.8752 67.1429 30.1085 66.371 29.5601 65.4499C28.7582 64.1991 28.3023 62.758 28.2391 61.2735C28.1758 59.789 28.5075 58.3144 29.2001 56.9999C30.0146 55.5377 31.2339 54.3419 32.7116 53.556C34.1893 52.7701 35.8625 52.4277 37.5301 52.5699C38.9301 52.6399 39.2201 52.1299 39.3901 50.9699C40.095 46.5698 42.1646 42.5025 45.3066 39.3425C48.4487 36.1826 52.5042 34.0898 56.9001 33.3599H57.0101C61.942 32.6775 66.9573 33.7386 71.1901 36.3599C71.6001 36.6199 72.0201 36.8999 72.4301 37.1999C74.7652 38.961 76.7209 41.1752 78.1801 43.7099L78.8501 44.8399" stroke="white" stroke-width="4" stroke-miterlimit="10"/>
<path d="M59.0601 56.9998C59.3274 55.1149 60.1748 53.3599 61.4847 51.9783C62.7946 50.5968 64.502 49.6571 66.3701 49.2898C66.9682 49.1912 67.5738 49.1444 68.1801 49.1498C70.5437 49.1469 72.8229 50.0279 74.5701 51.6198C75.7827 52.7532 76.6583 54.1999 77.1001 55.7998" stroke="white" stroke-width="4" stroke-miterlimit="10"/>
<path d="M71.5698 49.67C74.2498 45.54 80.4098 44 85.3398 45C87.5092 45.3987 89.5124 46.4296 91.0976 47.9633C92.6829 49.497 93.7796 51.465 94.2498 53.62C94.8798 56.33 95.0798 57.37 97.1798 58.82C100.18 60.89 99.9598 65.52 97.5398 67.71C96.8869 68.2562 96.0706 68.5694 95.2198 68.6H92.2198" stroke="white" stroke-width="4" stroke-miterlimit="10"/>
</g>
<defs>
<clipPath id="clip0_3430_1425">
<rect width="101.39" height="100.33" fill="white"/>
</clipPath>
</defs>
</svg>
