<svg width="96" height="89" viewBox="0 0 96 89" fill="none" xmlns="http://www.w3.org/2000/svg">
<g clip-path="url(#clip0_3430_1447)">
<path d="M23.8998 3.59959C11.0998 5.09959 1.89982 16.4996 3.09982 29.3996C4.29982 42.1996 15.7998 51.4996 28.4998 50.0996C31.4998 49.6996 34.1998 48.8996 36.9998 47.3996C35.3998 46.2996 33.9998 45.0996 32.6998 43.6996C28.1998 39.4996 25.0998 34.0996 24.0998 27.9996C22.9998 20.5996 24.9998 13.4996 27.2998 8.59959C28.0998 6.99959 28.8998 5.19959 29.8998 3.69959C27.9998 3.29959 25.8998 3.29959 23.8998 3.59959Z" fill="#EAD88C"/>
<path d="M53.6001 88.3998C55.5001 86.3998 61.4001 79.9998 61.4001 79.9998C62.8001 78.4998 64.1001 77.0998 65.4001 75.6998C65.9001 75.2998 66.1001 74.6998 65.8001 74.0998C65.5001 73.5998 64.9001 73.2998 64.3001 73.3998C63.9001 73.3998 63.4001 73.4998 62.9001 73.4998C63.0001 73.1998 63.1001 72.9998 63.2001 72.7998C64.1001 71.0998 64.9001 69.4998 65.8001 67.7998C66.4001 66.6998 65.9001 65.7998 64.6001 65.7998C61.6001 65.7998 58.6001 65.7998 55.7001 65.7998C55.1001 65.7998 54.5001 66.0998 54.3001 66.6998C52.6001 70.0998 51.0001 73.4998 49.3001 76.8998C48.9001 77.4998 49.0001 78.1998 49.6001 78.5998C49.9001 78.7998 50.2001 78.8998 50.5001 78.7998H54.1001C53.9001 79.3998 53.8001 79.9998 53.5001 80.4998L52.4001 83.7998C52.0001 84.9998 51.6001 86.0998 51.3001 87.2998C51.2001 87.6998 51.3001 88.1998 51.6001 88.4998C52.0001 88.6998 52.4001 88.7998 52.8001 88.7998C53.1001 88.8998 53.4001 88.5998 53.6001 88.3998Z" fill="#F5B952"/>
<path d="M74.7 61.2999H25.8C23.5 61.0999 21.4 59.8999 20.2 57.8999C17.5 53.6999 18.7 48.1999 22.9 45.4999C24.6 44.3999 26.6 43.8999 28.7 44.0999C30.2 44.1999 30.5 43.5999 30.7 42.3999C32.2 32.7999 39.6 25.2999 49.1 23.5999H49.2C54.4 22.8999 59.7 23.9999 64.2 26.7999C64.6 27.0999 65.1 27.3999 65.5 27.6999C68 29.5999 70 31.9999 71.6 34.6999L72.3 35.8999" fill="white"/>
<path d="M51.3999 48.7998C51.9999 44.6998 55.0999 41.3998 59.0999 40.4998C59.6999 40.3998 60.3999 40.2998 60.9999 40.3998C63.4999 40.3998 65.9999 41.2998 67.7999 43.0998C69.0999 44.2998 69.9999 45.8998 70.4999 47.5998" fill="white"/>
<path d="M64.5996 40.9997C67.3996 36.5997 73.8996 34.8997 79.0996 35.9997C83.7996 36.8997 87.5996 40.5997 88.4996 45.2997C89.1996 48.1997 89.3996 49.2997 91.5996 50.8997C94.6996 53.0997 94.4996 58.0997 91.9996 60.3997C91.2996 60.9997 90.4996 61.3997 89.4996 61.3997H72.5996" fill="white"/>
<path d="M80.4998 79.3999L74.2998 85.2999" stroke="#5063F0" stroke-width="3" stroke-miterlimit="10" stroke-linecap="round"/>
<path d="M38.2996 79.3999L32.0996 85.2999" stroke="#5063F0" stroke-width="3" stroke-miterlimit="10" stroke-linecap="round"/>
<path d="M80.4998 66.5996L74.2998 72.4996" stroke="#5063F0" stroke-width="3" stroke-miterlimit="10" stroke-linecap="round"/>
<path d="M38.2996 66.5996L32.0996 72.4996" stroke="#5063F0" stroke-width="3" stroke-miterlimit="10" stroke-linecap="round"/>
<path d="M87 61.1L25.0999 61.2C22.7999 61.1 20.6999 59.8 19.4999 57.8C17.7999 55.1 17.5999 51.6 19.0999 48.8C20.8999 45.6 24.2999 43.8 27.8999 44.1C29.3999 44.2 29.6999 43.6 29.8999 42.4C31.3999 32.8 38.8999 25.3 48.4999 23.7H48.5999C53.7999 23 59.1999 24.1 63.6999 26.9C64.0999 27.2 64.5999 27.5 64.9999 27.8C67.4999 29.7 69.5999 32 71.0999 34.7L71.7999 35.9" stroke="white" stroke-width="4" stroke-miterlimit="10"/>
<path d="M50.8999 48.7999C51.4999 44.6999 54.5999 41.3999 58.6999 40.5999C59.2999 40.4999 59.9999 40.3999 60.5999 40.4999C63.0999 40.4999 65.4999 41.3999 67.3999 43.0999C68.6999 44.2999 69.5999 45.8999 70.0999 47.5999" stroke="white" stroke-width="4" stroke-miterlimit="10"/>
<path d="M64.0996 40.9999C66.9996 36.5999 73.4996 34.9999 78.6996 36.0999C83.3996 36.9999 87.0996 40.5999 88.1996 45.2999C88.8996 48.1999 89.0996 49.2999 91.2996 50.7999C94.4996 52.9999 94.2996 57.8999 91.6996 60.1999C90.9996 60.7999 90.0996 61.0999 89.1996 61.0999H85.9996" stroke="white" stroke-width="4" stroke-miterlimit="10"/>
<path d="M77.6997 59.1997H82.7997" stroke="white" stroke-width="4" stroke-miterlimit="10"/>
</g>
<defs>
<clipPath id="clip0_3430_1447">
<rect width="95.9" height="88.8" fill="white"/>
</clipPath>
</defs>
</svg>
