<svg width="95" height="67" viewBox="0 0 95 67" fill="none" xmlns="http://www.w3.org/2000/svg">
<g clip-path="url(#clip0_3430_1466)">
<path d="M58.3099 39.7398H9.58988C8.4595 39.672 7.36334 39.3262 6.39867 38.733C5.434 38.1399 4.63064 37.3179 4.05988 36.3398C3.15952 34.9221 2.6738 33.2808 2.65764 31.6014C2.64149 29.9221 3.09555 28.2717 3.96847 26.8369C4.84139 25.4022 6.09835 24.2403 7.5972 23.4827C9.09604 22.725 10.777 22.4019 12.4499 22.5498C13.9199 22.6198 14.2199 22.0798 14.4499 20.8398C15.1669 16.1852 17.3246 11.8722 20.6196 8.50727C23.9147 5.1423 28.1813 2.8945 32.8199 2.07982H32.9299C38.1238 1.35061 43.4083 2.48047 47.8499 5.26982C48.2899 5.53982 48.7299 5.84982 49.1599 6.16982C51.6084 8.07787 53.6488 10.4583 55.1599 13.1698L55.8699 14.3798" fill="white"/>
<path d="M35.0898 27.2696C35.3522 25.2625 36.2339 23.3872 37.6123 21.9049C38.9907 20.4225 40.7971 19.407 42.7798 18.9996C43.4081 18.8982 44.0435 18.848 44.6798 18.8496C47.1727 18.8504 49.5731 19.7934 51.3998 21.4896C52.6922 22.7152 53.6169 24.2771 54.0698 25.9996" fill="white"/>
<path d="M48.25 19.4899C51.07 15.0899 57.56 13.4899 62.73 14.5399C65.0267 14.977 67.1427 16.0838 68.8118 17.7209C70.4809 19.3579 71.6284 21.4521 72.11 23.7399C72.77 26.6399 72.98 27.7399 75.19 29.2999C78.33 31.5099 78.11 36.4499 75.57 38.7799C74.8918 39.3704 74.029 39.7063 73.13 39.7299H56.28" fill="white"/>
<path d="M58.6997 53.0796C56.0497 53.0796 53.3997 53.0796 50.6997 53.0796" stroke="#FBFDFD" stroke-width="3" stroke-miterlimit="10" stroke-linecap="round"/>
<path d="M50.75 47.79C52.18 47.79 53.62 47.79 55.06 47.79" stroke="#FBFDFD" stroke-width="3" stroke-miterlimit="10" stroke-linecap="round"/>
<path d="M61 47.7998C69.34 47.7998 77.6733 47.7998 86 47.7998C87.2344 47.8465 88.4608 47.5825 89.5668 47.0322C90.6727 46.4818 91.6228 45.6627 92.33 44.6498C93.1914 43.4101 93.5403 41.8854 93.3036 40.3944C93.0669 38.9035 92.263 37.5618 91.06 36.6498C90.1995 36.0303 89.1458 35.7391 88.0893 35.829C87.0329 35.9188 86.0434 36.3838 85.3 37.1398C84.7079 37.7531 84.377 38.5723 84.377 39.4248C84.377 40.2773 84.7079 41.0965 85.3 41.7098C85.5125 41.936 85.7676 42.118 86.0506 42.2455C86.3336 42.373 86.639 42.4434 86.9493 42.4527C87.2595 42.462 87.5685 42.41 87.8587 42.2997C88.1488 42.1893 88.4143 42.0229 88.64 41.8098" stroke="#FBFDFD" stroke-width="3" stroke-miterlimit="10" stroke-linecap="round"/>
<path d="M75.8499 59.1497C75.4677 58.7564 74.966 58.5009 74.4232 58.4231C73.8804 58.3453 73.3271 58.4496 72.8499 58.7197C72.3575 59.0501 71.9648 59.509 71.7145 60.0466C71.4642 60.5842 71.3658 61.1801 71.4299 61.7697C71.568 62.5944 71.9669 63.3532 72.5681 63.9346C73.1692 64.5159 73.9409 64.8892 74.7699 64.9997C75.9663 65.1808 77.1871 64.9062 78.1908 64.2303C79.1945 63.5544 79.9079 62.5264 80.1899 61.3497C80.5971 59.9978 80.5203 58.5463 79.9728 57.2449C79.4252 55.9435 78.4411 54.8737 77.1899 54.2197C75.956 53.4957 74.5505 53.1158 73.1199 53.1197H64.3999" stroke="#FBFDFD" stroke-width="3" stroke-miterlimit="10" stroke-linecap="round"/>
<path d="M70.5 39.7197H8.99991C7.86355 39.6533 6.76053 39.3107 5.78646 38.7217C4.81238 38.1328 3.99663 37.3151 3.40991 36.3397C2.56145 35.0052 2.07961 33.4706 2.0129 31.8906C1.94618 30.3107 2.29696 28.741 3.02991 27.3397C3.89708 25.7854 5.19423 24.5144 6.76576 23.6789C8.3373 22.8435 10.1165 22.4792 11.8899 22.6297C13.3699 22.7097 13.6799 22.1697 13.8899 20.9397C14.641 16.2706 16.8379 11.9548 20.1711 8.60013C23.5042 5.24543 27.8058 3.02084 32.4699 2.23968H32.5899C37.8304 1.51021 43.161 2.63505 47.6599 5.41968C48.0999 5.69301 48.5399 5.99301 48.9799 6.31968C51.4574 8.19204 53.5349 10.5416 55.0899 13.2297L55.7999 14.4297" stroke="white" stroke-width="4" stroke-miterlimit="10"/>
<path d="M34.77 27.3097C35.0508 25.3043 35.9504 23.4365 37.3432 21.9666C38.736 20.4967 40.5527 19.498 42.54 19.1097C43.1755 19.0159 43.818 18.9791 44.46 18.9997C46.9712 18.994 49.3935 19.9287 51.25 21.6197C52.542 22.8409 53.4727 24.3944 53.94 26.1097" stroke="white" stroke-width="4" stroke-miterlimit="10"/>
<path d="M48.0601 19.5697C50.9101 15.1897 57.4601 13.5697 62.6901 14.6497C64.9965 15.0673 67.1274 16.1595 68.813 17.7882C70.4987 19.4169 71.6635 21.5089 72.1601 23.7997C72.8301 26.6897 73.0401 27.7997 75.2701 29.3297C78.4501 31.5297 78.2701 36.4497 75.6601 38.7697C74.9684 39.3574 74.0973 39.6924 73.1901 39.7197H70.0001" stroke="white" stroke-width="4" stroke-miterlimit="10"/>
</g>
<defs>
<clipPath id="clip0_3430_1466">
<rect width="94.85" height="66.53" fill="white"/>
</clipPath>
</defs>
</svg>
