<svg clip-rule="evenodd" fill-rule="evenodd" height="512" image-rendering="optimizeQuality" shape-rendering="geometricPrecision" text-rendering="geometricPrecision" fill="#ffffff" viewBox="0 0 43.3492 43.3492" width="512" xmlns="http://www.w3.org/2000/svg"><g id="Layer_x0020_1"><g id="_219206984"><path id="_219208520" d="m16.342 14.0743c-2.3924 0-4.7792-.2819-7.1391-.8448-.2543-.0611-.4111-.3164-.351-.5698.0612-.2543.3164-.4111.5708-.3509 4.0132.9572 8.1071 1.0755 12.1685.3519.0554-.0099.1115-.0098.1666 0 4.0615.7235 8.1555.6053 12.1687-.3519.2544-.0611.5096.0966.5708.3509.0602.2534-.0967.5087-.351.5698-4.1127.9808-8.3082 1.108-12.4712.3776-1.7743.3114-3.5558.4672-5.3331.4672z"/><path id="_219209072" d="m16.342 21.0162c-2.3924 0-4.7792-.2819-7.1391-.8448-.2543-.0612-.4111-.3164-.351-.5707.0612-.2544.3164-.4101.5708-.35 4.0132.9571 8.1071 1.0755 12.1685.3519.0554-.0098.1115-.0098.1666 0 4.0615.7235 8.1555.6053 12.1687-.3519.2555-.0612.5096.0966.5708.35.0602.2542-.0967.5096-.351.5707-4.1127.9809-8.3082 1.1081-12.4712.3776-1.7752.3115-3.5558.4673-5.3331.4672z"/><path id="_219207968" d="m7.0136 13.5183c-1.3288 0-2.304-.345-2.9536-1.039-.1783-.1913-.1686-.4899.0227-.6683.1914-.1785.4899-.1686.6684.0216.7354.7867 2.2377.9454 4.4636.4732.2554-.0533.5067.1094.5609.3648.0542.2562-.1094.5067-.3647.5609-.8999.1912-1.6976.2868-2.3973.2868z"/><path id="_219207848" d="m7.7222 20.3104c-1.9103 0-3.8002-.5195-5.4514-1.5171-.2236-.1351-.2948-.4259-.1597-.6496.135-.2239.4259-.2958.6496-.1607 1.9393 1.172 4.2399 1.6196 6.4767 1.2608.2584-.0414.5007.1341.5422.3924.0413.2572-.1341.5007-.3924.5421-.5528.0887-1.11.1321-1.665.1321z"/><path id="_219207728" d="m8.4045 27.1557c-2.2753 0-4.5199-.551-6.5438-1.6137-.2305-.1213-.3204-.4081-.1981-.6388.1213-.2317.4071-.3204.6388-.1991 2.1461 1.1276 4.5602 1.6384 6.9793 1.4767.2634-.0198.487.1794.5037.4406.0179.2602-.1793.4861-.4406.5028-.3123.0216-.6259.0316-.9393.0315z"/><path id="_219208328" d="m7.327 34.2583c-2.1313 0-4.2144-.6308-6.0213-1.8463-.2167-.146-.2741-.4407-.1281-.6575.1458-.217.4406-.2741.6565-.1282 2.1827 1.4688 4.8057 2.0021 7.3885 1.5033.2574-.0502.5047.1183.555.3746.0493.2563-.1183.5048-.3756.555-.691.133-1.386.1991-2.075.1991z"/><path id="_219208160" d="m7.1555 41.2209c-2.0437 0-4.0626-.5421-5.8498-1.591-.0827-.0483-.1489-.1202-.1893-.207-.7866-1.6778-.7975-4.1009-.0315-7.4052-.5746-2.5888-.4091-4.9201.4939-6.9341-.4523-1.7093-.2958-3.9845.4662-6.7684.1036-2.6104.7581-4.7604 1.945-6.3918 1.4166-3.4494 2.8884-5.2888 4.6303-5.7896.2504-.073.5136.073.5855.3233.0722.2514-.0729.5136-.3243.5856-1.4292.411-2.7503 2.1421-4.0378 5.2927-.0146.0355-.0345.07-.0571.1015-1.1032 1.4925-1.7075 3.5006-1.7982 5.968-.0007.0374-.0069.0739-.0167.1094-.7531 2.7307-.9 4.9083-.4367 6.4747.0326.1113.0236.2307-.0257.3361-.8879 1.8819-1.0488 4.0989-.4781 6.5881.0169.0709.0158.1439 0 .2139-.7086 3.0086-.7472 5.2828-.1173 6.7615 2.2151 1.2588 4.8038 1.6788 7.3067 1.1829.2563-.0503.5057.1164.556.3727.0514.2563-.1154.5047-.3716.556-.7463.1478-1.5004.2208-2.2495.2207z"/><path id="_219208016" d="m16.342 27.9571c-2.3924 0-4.7792-.2818-7.1391-.8447-.2543-.0602-.4111-.3155-.351-.5698.0612-.2544.3164-.4111.5708-.35 4.0132.9572 8.1071 1.0755 12.1685.352.0554-.01.1115-.0099.1666 0 4.0615.7235 8.1555.6052 12.1687-.352.2555-.0611.5096.0956.5708.35.0602.2543-.0967.5096-.351.5698-4.1127.9818-8.3082 1.109-12.4712.3785-1.7752.3114-3.5558.4663-5.3331.4662z"/><path id="_219207704" d="m16.342 34.899c-2.3924 0-4.7792-.2818-7.1391-.8447-.2543-.0601-.4111-.3155-.351-.5698.0612-.2543.3164-.4111.5708-.3509 4.0132.9581 8.1071 1.0765 12.1685.3519.0554-.0099.1115-.0099.1666 0 4.0615.7245 8.1555.6062 12.1687-.3519.2555-.0612.5096.0966.5708.3509.0602.2543-.0967.5097-.351.5698-4.1127.9808-8.3082 1.108-12.4712.3776-1.7752.3114-3.5558.4672-5.3331.4671z"/><path id="_219208040" d="m21.6752 41.3669c-.2622 0-.4733-.212-.4733-.4732l.0002-37.9746c0-.2612.2107-.4731.473-.4731.2614-.0001.4731.2119.4731.4731l.0001 37.9746c0 .2611-.212.4732-.4731.4732z"/><path id="_219207800" d="m36.3359 13.5183c-.7 0-1.4975-.0956-2.3976-.2868-.2552-.0543-.419-.3046-.3647-.5609.0543-.2554.3065-.419.5609-.3648 2.226.4722 3.7282.3135 4.4636-.4732.1785-.1912.4772-.2011.6684-.0216.1913.1784.2011.4771.0227.6683-.6497.6939-1.6246 1.039-2.9533 1.039z"/><path id="_219208280" d="m35.627 20.3104c-.5549 0-1.112-.0433-1.665-.1321-.2582-.0415-.4338-.2849-.3924-.5421.0414-.2584.2839-.4338.5422-.3924 2.237.3588 4.5376-.0887 6.4766-1.2608.2239-.1352.5146-.0631.6497.1607.1351.2237.064.5145-.1597.6496-1.6512.9975-3.541 1.5171-5.4514 1.5171z"/><path id="_219207440" d="m34.945 27.1557c-.3137 0-.6262-.0098-.9397-.0315-.2612-.0168-.4584-.2425-.4406-.5037.0169-.2603.2395-.4594.5037-.4397 2.4183.1606 4.8324-.349 6.9794-1.4767.2319-.1213.5175-.0326.6388.1991.1223.2306.0325.5176-.1981.6388-2.0239 1.0626-4.2685 1.6138-6.5435 1.6137z"/><path id="_219207128" d="m36.0223 34.2583c-.689 0-1.3841-.066-2.0751-.1991-.2572-.0503-.4249-.2987-.3756-.555.0503-.2563.2977-.4248.555-.3746 2.5819.4998 5.2059-.0345 7.3885-1.5033.217-.1459.5106-.0887.6565.1282.1461.2168.0887.5116-.1281.6575-1.807 1.2154-3.89 1.8463-6.0212 1.8463z"/><path id="_219207248" d="m41.804 39.2217h.0011zm-5.61 1.9992c-.7504 0-1.5035-.0729-2.2498-.2207-.2562-.0513-.4229-.2997-.3716-.556.0504-.2564.2997-.4229.556-.3727 2.5029.4959 5.0915.076 7.3067-1.1829.63-1.4797.5914-3.7529-.1174-6.7615-.0167-.07-.0168-.143 0-.2139.5708-2.4892.4101-4.7062-.4781-6.5881-.0492-.1054-.0581-.2247-.0256-.3361.4635-1.5655.3164-3.744-.4367-6.4747-.0097-.0355-.0158-.0719-.0168-.1094-.0907-2.4674-.695-4.4755-1.7981-5.968-.0235-.0315-.0424-.066-.0572-.1015-1.2892-3.1565-2.6103-4.8876-4.0358-5.2917-.2513-.0721-.3982-.3332-.3263-.5846.071-.2514.3332-.3973.5846-.3263 1.7391.4938 3.2117 2.3344 4.6313 5.7906 1.1869 1.6303 1.8414 3.7814 1.9449 6.3918.7621 2.7838.9188 5.0591.4663 6.7684.9031 2.0139 1.0686 4.3454.4939 6.9341.766 3.3043.7551 5.7274-.0316 7.4052-.0403.0867-.1065.1587-.1892.207-1.7872 1.0488-3.8061 1.5911-5.8495 1.591z"/><path id="_219207584" d="m21.6752 6.8337c-2.6548 0-5.3096-.6536-7.6775-1.9617-.2267-.1253-.3105-.4101-.1883-.6378l1.5331-2.8589c.1242-.2306.4109-.3163.6407-.1931.2308.1232.3173.4101.1932.6408l-1.3081 2.4398c4.24 2.1676 9.3728 2.1677 13.6126 0l-1.309-2.4399c-.1231-.2306-.0365-.5175.1941-.6407.2297-.1232.5166-.0375.6408.1932l1.5331 2.8588c.1222.2276.0382.5126-.1885.6378-2.3678 1.3081-5.0226 1.9617-7.6762 1.9617z"/><path id="_219207536" d="m17.0823 1.6376c2.9713 1.0833 6.2134 1.0834 9.1846 0-2.9987-.9208-6.1868-.9207-9.1846 0zm4.592 1.7596c-2.0861 0-4.1721-.4564-6.1161-1.3702-.1705-.0799-.278-.2543-.271-.4426.0061-.1893.1232-.3569.2996-.4259 3.9256-1.5447 8.2501-1.5447 12.1755 0 .1766.069.2938.2366.2997.4259.006.1882-.1006.3628-.2711.4426-1.9438.9138-4.0299 1.3703-6.1166 1.3702z"/><path id="_219207512" d="m16.342 41.841c-2.3924 0-4.7792-.2819-7.1391-.8448-.1538-.0366-.279-.1478-.3332-.2947-.8536-2.29-.8734-4.8067-.0602-7.1076-.7934-2.2446-.7935-4.6963 0-6.9419-.7934-2.2447-.7935-4.6963 0-6.9409-.8053-2.2793-.7935-4.7712.0365-7.0435.1481-2.0081-.0375-4.0121-.553-5.9581-.0531-.2041.0345-.419.2149-.5274.4172-.2485.8991-.4071 1.5674-.626.8784-.2879 2.081-.6812 3.9569-1.5299.2376-.1075.5186-.002.626.2366.1076.2375.002.5185-.2366.6259-1.9222.8695-3.1525 1.2727-4.0515 1.5675-.4496.1468-.7906.2582-1.0677.3805.4753 1.9547.6378 3.9609.482 5.9689-.0038.0444-.0128.0878-.0285.1282-.7936 2.1322-.7936 4.4804 0 6.6116.0395.1065.0394.2238 0 .3303-.7936 2.1323-.7936 4.4804 0 6.6117.0395.1064.0394.2238 0 .3302-.7936 2.1312-.7936 4.4795 0 6.6117.0395.1064.0394.2238 0 .3303-.7649 2.0533-.7926 4.3068-.0848 6.3741 3.9334.9039 7.9425 1.0025 11.9201.2937.0554-.0098.1115-.0098.1666 0 3.9779.7087 7.9869.6102 11.9202-.2937.708-2.0673.6803-4.3208-.0848-6.3741-.0394-.1066-.0394-.2238 0-.3303.7937-2.1322.7936-4.4804 0-6.6117-.0394-.1065-.0394-.2238 0-.3302.7937-2.1313.7936-4.4794 0-6.6117-.0394-.1065-.0394-.2238 0-.3303.7937-2.1313.7936-4.4794 0-6.6116-.0156-.0405-.0246-.0838-.0285-.1282-.1557-2.0081.0069-4.0141.482-5.9689-.2768-.1223-.6181-.2337-1.0676-.3805-.8989-.2948-2.1293-.698-4.0516-1.5675-.2385-.1075-.344-.3883-.2366-.6259.1077-.2386.3884-.3441.626-.2366 1.8761.8487 3.0786 1.2421 3.957 1.5299.6685.2188 1.1504.3776 1.5674.626.1804.1074.2681.3233.2149.5274-.5156 1.9458-.7009 3.9501-.5531 5.9581.8302 2.2722.8419 4.7643.0365 7.0435.7937 2.2445.7936 4.6963 0 6.9409.7937 2.2456.7936 4.6973 0 6.9419.8135 2.3008.7936 4.8176-.0601 7.1076-.0542.1468-.1794.2583-.3332.2947-4.1127.9809-8.3082 1.108-12.4712.3776-1.7752.3115-3.5558.4672-5.3331.4672z"/><path id="_219207176" d="m6.9899 43.3492c-.0622 0-.1253-.0048-.1884-.0157l-4.1707-.7157c-.6723-.1154-1.1496-.8093-1.0855-1.5792l.1273-1.529c.0215-.2603.2512-.4544.5104-.4327.2603.0216.4535.2504.4318.5106l-.126 1.53c-.0246.2858.1428.5402.3015.5678l4.1709.7156c.0178.003.072.0119.14-.0404.0867-.068.1459-.1951.1587-.341l.1135-1.3339c.0217-.2602.2522-.4524.5115-.4307.2603.0216.4534.2504.4307.5116l-.1132 1.3328c-.0334.4101-.2239.7788-.5216 1.0095-.2039.1576-.4446.2405-.6909.2404z"/><path id="_219207008" d="m36.3594 43.3492c-.2464 0-.487-.0827-.691-.2404-.2976-.2308-.488-.5994-.5215-1.0105l-.1103-1.3328c-.0218-.2612.1714-.4889.4326-.5106.2614-.0218.489.1715.5106.4328l.1097 1.3327c.0126.145.0718.2721.1585.3401.0681.0523.1223.0434.14.0405l4.171-.7157c.1586-.0276.3262-.2819.3015-.5678l-.126-1.53c-.0218-.2603.1714-.4889.4316-.5106.2604-.0218.489.1725.5106.4328l.1273 1.5289c.0641.7699-.4131 1.4639-1.0854 1.5792l-4.1709.7157c-.063.0109-.1262.0158-.1883.0157z"/></g></g></svg>