<svg id="Outline" height="512" viewBox="0 0 128 128" width="512" xmlns="http://www.w3.org/2000/svg" fill="#ffffff"><path d="m56.152 70.407a1.5 1.5 0 0 1 -1.5-1.5c0-9.121 4.91-35.157 5.119-36.261a1.5 1.5 0 0 1 2.948.558c-.051.268-5.067 26.862-5.067 35.7a1.5 1.5 0 0 1 -1.5 1.503z"/><path d="m71.848 70.407a1.5 1.5 0 0 1 -1.5-1.5c0-8.842-5.016-35.435-5.067-35.7a1.5 1.5 0 0 1 2.948-.559c.208 1.1 5.119 27.14 5.119 36.261a1.5 1.5 0 0 1 -1.5 1.498z"/><path d="m126.825 111.84c-2.667-8.077-16.31-49.334-23.112-68.453a26.523 26.523 0 0 0 -12.9-14.745l-1.854-1.008c.629-.513 1.2-1.016 1.682-1.492a5.184 5.184 0 0 0 .1-7.08l-.947-1.122c-4.115-4.887-9.749-11.581-15.976-11.581h-19.636c-6.227 0-11.861 6.694-15.975 11.581l-.947 1.122a5.184 5.184 0 0 0 .1 7.08c.478.476 1.053.979 1.682 1.492l-1.822.991a26.548 26.548 0 0 0 -12.933 14.762c-6.8 19.119-20.445 60.376-23.113 68.457a3.527 3.527 0 0 0 2.2 4.405l15.15 5.2a3.5 3.5 0 0 0 4.409-2.074l8.776-23.01.47 11.906a3.493 3.493 0 0 0 3.5 3.366h56.642a3.493 3.493 0 0 0 3.5-3.366l.47-11.907 8.77 22.992a3.508 3.508 0 0 0 4.416 2.093l15.152-5.2a3.528 3.528 0 0 0 2.196-4.409zm-87.282-90.833.96-1.135c3.523-4.186 8.849-10.513 13.679-10.513h19.636c4.83 0 10.156 6.327 13.679 10.513l.96 1.135a2.2 2.2 0 0 1 .067 3.011c-4.058 4.049-15.116 10.763-24.524 10.763s-20.466-6.714-24.524-10.763a2.2 2.2 0 0 1 .067-3.011zm84.109 92.4-15.148 5.2a.506.506 0 0 1 -.633-.306l-.446-1.17 13.422-4.7a1.5 1.5 0 1 0 -.991-2.832l-13.5 4.722-9.764-25.585 1.646-41.77a1.5 1.5 0 1 0 -3-.118l-2.416 61.305a.5.5 0 0 1 -.5.484h-56.643a.5.5 0 0 1 -.5-.484l-2.419-61.305a1.527 1.527 0 0 0 -1.558-1.44 1.5 1.5 0 0 0 -1.44 1.558l1.646 41.77-9.763 25.594-13.5-4.722a1.5 1.5 0 1 0 -.991 2.832l13.423 4.7-.454 1.189a.5.5 0 0 1 -.625.287l-15.146-5.2a.506.506 0 0 1 -.327-.633c2.664-8.071 16.3-49.3 23.089-68.386a23.579 23.579 0 0 1 11.5-13.116l3.086-1.681c5.67 3.816 14.307 7.711 22.119 8.162h.356c7.815-.451 16.452-4.346 22.125-8.162l3.118 1.694a23.56 23.56 0 0 1 11.472 13.1c6.79 19.088 20.425 60.316 23.088 68.383a.505.505 0 0 1 -.326.634z"/><path d="m57.656 28.888a13.489 13.489 0 0 0 12.688 0c4.2-2.234 7.021-5.174 8.4-8.738a1.5 1.5 0 1 0 -2.8-1.081c-1.109 2.872-3.467 5.285-7.009 7.17a10.483 10.483 0 0 1 -9.868 0c-3.542-1.885-5.9-4.3-7.009-7.17a1.5 1.5 0 1 0 -2.8 1.081c1.377 3.564 4.203 6.504 8.398 8.738z"/><path d="m86.114 98.141a1.5 1.5 0 1 0 1.6-2.539 30.133 30.133 0 0 1 -9.963-9.954 1.5 1.5 0 0 0 -2.572 1.545 33.106 33.106 0 0 0 10.935 10.948z"/><path d="m41.088 98.371a1.5 1.5 0 0 0 .8-.23 33.106 33.106 0 0 0 10.935-10.948 1.5 1.5 0 0 0 -2.572-1.545 30.133 30.133 0 0 1 -9.963 9.952 1.5 1.5 0 0 0 .8 2.769z"/><path d="m90.256 103.138h-52.512a1.5 1.5 0 0 0 0 3h52.512a1.5 1.5 0 0 0 0-3z"/></svg>