<svg id="Outline" height="512" viewBox="0 0 128 128" width="512" xmlns="http://www.w3.org/2000/svg" fill="#ffffff"><path d="m113.268 29.1a23.033 23.033 0 0 0 -13.249-14.173c-3.39-1.364-13.145-4.621-16.371-5.691v-1.667a3.673 3.673 0 0 0 -1.948-3.25 1.458 1.458 0 0 0 -.222-.1 52.437 52.437 0 0 0 -34.964 0 1.458 1.458 0 0 0 -.222.1 3.673 3.673 0 0 0 -1.944 3.251v1.667c-3.227 1.07-12.982 4.327-16.371 5.691a23.033 23.033 0 0 0 -13.245 14.172c-8.909 26.859-11.712 79.967-12 85.94a3.554 3.554 0 0 0 .053.783l1.509 8.294a3.5 3.5 0 0 0 3.443 2.874h13.19a3.507 3.507 0 0 0 3.183-2.046l3.84-8.411a3.39 3.39 0 0 0 .249-.771l2.234-11.2.639 1.816a3.487 3.487 0 0 0 2.555 2.257l21.241 4.642a3.457 3.457 0 0 0 .749.081 3.5 3.5 0 0 0 3.486-3.184l.488-5.4c2.933-.1 5.89-.1 8.829 0 .3 3.3.474 5.291.483 5.4a3.5 3.5 0 0 0 4.234 3.1l21.243-4.644a3.484 3.484 0 0 0 2.554-2.257l.638-1.815 2.235 11.2a3.473 3.473 0 0 0 .248.768l3.841 8.413a3.507 3.507 0 0 0 3.183 2.046h13.19a3.5 3.5 0 0 0 3.443-2.874l1.511-8.3a3.574 3.574 0 0 0 .051-.779c-.294-5.965-3.097-59.073-12.006-85.933zm-65.633-22.088a49.407 49.407 0 0 1 32.73 0 .667.667 0 0 1 .287.554l-.007 2.556c-1.314 5.871-7.328 8.4-12.17 10.424l-.742.312c.054-2.725.444-5.912 2.791-8.2a27.529 27.529 0 0 1 4.905-3.538 1.5 1.5 0 0 0 -1.529-2.58 37.587 37.587 0 0 0 -4.252 2.9 46.36 46.36 0 0 0 -11.308-.006 37.618 37.618 0 0 0 -4.24-2.894 1.5 1.5 0 1 0 -1.528 2.582 27.529 27.529 0 0 1 4.905 3.538c2.347 2.286 2.737 5.473 2.791 8.2l-.742-.312c-4.842-2.028-10.854-4.553-12.169-10.421 0-.406-.007-1.446-.008-2.559a.667.667 0 0 1 .286-.556zm16.37 15.795a6.889 6.889 0 0 0 -.731-.517c.015-2.674-.032-6.729-2.3-10.08a43.4 43.4 0 0 1 6.055-.02c-2.279 3.359-2.323 7.429-2.308 10.109a6.711 6.711 0 0 0 -.716.508zm.009 32.993c1.18 13.049 2.469 27.4 3.427 38.079-2.191-.028-4.668-.028-6.869 0zm-6.924 43.277-24.026-4.627a1.5 1.5 0 0 0 -.564 2.95l24.32 4.683-.707 7.823a.5.5 0 0 1 -.6.443l-21.247-4.649a.5.5 0 0 1 -.367-.323l-3.708-10.526-1.972-47.374a21.446 21.446 0 0 0 -1.689-7.5l-3.779-8.914a1.5 1.5 0 0 0 -2.762 1.172l3.78 8.913a18.439 18.439 0 0 1 1.452 6.452l1.979 47.6a1.538 1.538 0 0 0 .084.436l1.19 3.379-3.024 15.185h-17.317a1.5 1.5 0 1 0 0 3h16.214l-2.968 6.5a.5.5 0 0 1 -.455.292h-13.19a.5.5 0 0 1 -.492-.411l-1.507-8.281a.569.569 0 0 1 -.009-.115c.115-2.365 2.92-58.2 11.854-85.136a20.033 20.033 0 0 1 11.52-12.338c3.122-1.256 12.157-4.283 15.738-5.474 2.236 6.346 8.962 9.163 13.528 11.076 1.179.494 2.292.96 3.125 1.4a3.756 3.756 0 0 1 .671.456 6.8 6.8 0 0 0 -.625 3.524c.262 2.806.593 6.4.969 10.514 0 .017-.008.033-.01.051zm2.77 2.686.441-4.881c2.351-.034 5.07-.034 7.41 0 .158 1.769.305 3.405.437 4.881-2.759-.088-5.533-.087-8.288 0zm62.407 13.524-1.509 8.294a.5.5 0 0 1 -.492.411h-13.19a.5.5 0 0 1 -.455-.292l-2.968-6.5h16.214a1.5 1.5 0 0 0 0-3h-17.317l-3.027-15.186 1.19-3.378a1.538 1.538 0 0 0 .084-.436l1.982-47.6a18.439 18.439 0 0 1 1.452-6.453l3.78-8.913a1.5 1.5 0 0 0 -2.762-1.172l-3.779 8.914a21.446 21.446 0 0 0 -1.689 7.5l-1.972 47.376-1.245 3.531-.016.047-2.448 6.948a.5.5 0 0 1 -.366.323l-21.243 4.645a.51.51 0 0 1 -.4-.085.49.49 0 0 1 -.2-.358c-.012-.132-.276-3.083-.7-7.825l24.309-4.678a1.5 1.5 0 0 0 -.566-2.946l-24.015 4.621c-1.66-18.524-5-55.739-6.4-70.661a3.765 3.765 0 0 1 1.985-3.7c.834-.44 1.947-.906 3.126-1.4 4.57-1.914 11.296-4.731 13.531-11.077 3.581 1.191 12.616 4.218 15.738 5.474a20.033 20.033 0 0 1 11.521 12.335c8.934 26.935 11.739 82.771 11.854 85.13a.592.592 0 0 1 -.007.111z"/><path d="m70.531 30.34a2.153 2.153 0 1 0 -2.153 2.153 2.153 2.153 0 0 0 2.153-2.153z"/><path d="m72.684 55.444a2.153 2.153 0 1 0 -2.153 2.156 2.153 2.153 0 0 0 2.153-2.156z"/><path d="m73 78.4a2.153 2.153 0 1 0 2.153 2.153 2.153 2.153 0 0 0 -2.153-2.153z"/><path d="m76.341 103.5a2.153 2.153 0 1 0 2.153 2.153 2.153 2.153 0 0 0 -2.153-2.153z"/><path d="m92.452 70.62a1.5 1.5 0 0 0 -2.971.422l2.427 17.094a1.5 1.5 0 0 0 1.484 1.289 1.522 1.522 0 0 0 .212-.015 1.5 1.5 0 0 0 1.275-1.7z"/><path d="m37.244 69.346a1.507 1.507 0 0 0 -1.7 1.274l-2.423 17.094a1.5 1.5 0 0 0 1.275 1.7 1.522 1.522 0 0 0 .212.015 1.5 1.5 0 0 0 1.484-1.289l2.427-17.094a1.5 1.5 0 0 0 -1.275-1.7z"/></svg>