<?xml version="1.0"?>
<svg xmlns="http://www.w3.org/2000/svg" id="Layer_1" data-name="Layer 1" viewBox="0 0 512 512" width="512" height="512" fill="#ffffff"><path d="M475.07,45.93h-94.5V39.24a6,6,0,0,0-6-6H341.85a6,6,0,0,0-6,6v6.69H178.32V39.24a6,6,0,0,0-6-6H139.6a6,6,0,0,0-6,6v6.69H36.93a6,6,0,0,0-6,6V472.76a6,6,0,0,0,6,6H208.64a6,6,0,0,0,5.728-4.216l37.951-121.877L292.2,474.625a6,6,0,0,0,5.7,4.135H475.07a6,6,0,0,0,6-6V51.93A6,6,0,0,0,475.07,45.93Zm-127.22-.69h20.72v72.24H347.85ZM178.32,57.93H335.85v47.6H178.32ZM145.6,45.24h20.72v72.24H145.6ZM42.93,57.93H133.6v47.6H42.93Zm0,59.6H116v67.45a54.061,54.061,0,0,1-54,54H42.93ZM204.224,466.76H42.93V415.791l176.876.926Zm264.846,0H302.251l-16.349-50H469.07Zm0-62H281.979l-24.1-73.694a6,6,0,0,0-5.7-4.136h-.042a6,6,0,0,0-5.687,4.216l-22.913,73.587L42.93,403.791V250.98H62a66.074,66.074,0,0,0,66-66V117.53h5.6v5.95a6,6,0,0,0,6,6h32.72a6,6,0,0,0,6-6v-5.95H228V154a6,6,0,0,0,12,0V117.53h32V265.837a38.062,38.062,0,0,1-32-37.527V185.333a6,6,0,1,0-12,0V228.31a50.057,50.057,0,0,0,50,50,6,6,0,0,0,6-6V117.53h51.85v5.95a6,6,0,0,0,6,6h32.72a6,6,0,0,0,6-6v-5.95h4.02v67.45a66.074,66.074,0,0,0,66,66h18.48Zm0-165.78H450.59a54.061,54.061,0,0,1-54-54V117.53h72.48Zm0-133.45h-88.5V57.93h88.5Z"/><path d="M218,232.31V192.5a6,6,0,0,0-12,0v39.81a69.412,69.412,0,0,0,13.184,40.85,6,6,0,1,0,9.732-7.02A57.477,57.477,0,0,1,218,232.31Z"/><path d="M248.376,283.3a57.507,57.507,0,0,1-7.351-4.753,6,6,0,0,0-7.271,9.547,69.614,69.614,0,0,0,8.89,5.748,6,6,0,0,0,5.732-10.542Z"/></svg>
