<?xml version="1.0"?>
<svg xmlns="http://www.w3.org/2000/svg" id="Outline" viewBox="0 0 128 128" width="512" height="512" fill="#ffffff"><path d="M99.643,120.483H28.4a1.5,1.5,0,1,1,0-3H99.643a1.5,1.5,0,0,1,0,3Z"/><path d="M127.121,44.988l-14.2-27.04a24.046,24.046,0,0,0-12.549-11.34c-2.8-1.081-11.282-4.167-11.36-4.195A5.51,5.51,0,0,0,85.7,2.259a120.657,120.657,0,0,1-43.3.026,5.5,5.5,0,0,0-3.4.125c-.085.031-8.567,3.117-11.367,4.2a24.046,24.046,0,0,0-12.549,11.34L.879,44.988A3.5,3.5,0,0,0,2.69,49.869l22.857,9.246-3.915,64.17A3.5,3.5,0,0,0,25.125,127h77.75a3.5,3.5,0,0,0,3.493-3.713l-3.915-64.17,22.839-9.239a3.5,3.5,0,0,0,1.829-4.888ZM81.778,5.906C79.68,9.738,74.778,15.3,64,15.3,53.244,15.3,48.341,9.76,46.235,5.93A123.689,123.689,0,0,0,63.979,7.24,122.977,122.977,0,0,0,81.778,5.906ZM124.49,46.79a.508.508,0,0,1-.3.3l-21.924,8.869-.177-2.9,19.16-7.554a1.5,1.5,0,0,0-1.1-2.791l-18.252,7.2L101,35.242A1.5,1.5,0,1,0,98,35.425l5.371,88.043a.5.5,0,0,1-.5.53H25.125a.5.5,0,0,1-.5-.53L30,35.425A1.5,1.5,0,1,0,27,35.242l-.895,14.666-18.252-7.2a1.5,1.5,0,0,0-1.1,2.791l19.16,7.554-.177,2.9L3.8,47.081a.5.5,0,0,1-.261-.7l14.2-27.039A21.049,21.049,0,0,1,28.708,9.407C31.48,8.336,39.935,5.26,40.026,5.227a2.485,2.485,0,0,1,3.087,1.2C45.256,10.858,50.82,18.3,64,18.3S82.744,10.858,84.887,6.423A2.489,2.489,0,0,1,87.98,5.229c.085.031,8.539,3.107,11.312,4.178a21.049,21.049,0,0,1,10.974,9.936l14.2,27.039A.494.494,0,0,1,124.49,46.79Z"/><path d="M88.651,7.348a1.5,1.5,0,0,0-1.93.875c-.193.506-4.913,12.4-22.721,12.4s-22.528-11.9-22.719-12.4a1.5,1.5,0,1,0-2.812,1.044C38.687,9.858,44.03,23.625,64,23.625S89.313,9.858,89.531,9.272A1.5,1.5,0,0,0,88.651,7.348Z"/></svg>
